<?xml version="1.0" encoding="UTF-8" standalone="no"?>
<svg width="16" height="16" viewBox="0 0 16 16" xmlns="http://www.w3.org/2000/svg">
  <rect width="16" height="16" fill="none" />
  
  <!-- Base item background -->
  <path d="M2,2 L14,2 L14,14 L2,14 Z" fill="#142436" />
  
  <!-- Fusion reactor container -->
  <circle cx="8" cy="8" r="5" fill="#0a1828" stroke="#2a3546" stroke-width="0.5" />
  
  <!-- Reactor containment rings -->
  <circle cx="8" cy="8" r="4" fill="none" stroke="#0cf" stroke-width="0.3" stroke-dasharray="0.5,0.2" />
  <circle cx="8" cy="8" r="3" fill="none" stroke="#0cf" stroke-width="0.3" stroke-dasharray="0.5,0.2" />
  
  <!-- Reactor core -->
  <circle cx="8" cy="8" r="2" fill="#081018" stroke="#0cf" stroke-width="0.2" />
  
  <!-- Energy core glow -->
  <circle cx="8" cy="8" r="1.2" fill="#0cf" opacity="0.4" />
  <circle cx="8" cy="8" r="0.7" fill="#0cf" opacity="0.8" />
  
  <!-- Power conduits -->
  <rect x="3" y="7.5" width="2" height="1" rx="0.3" ry="0.3" fill="#14263a" stroke="#0cf" stroke-width="0.2" />
  <rect x="11" y="7.5" width="2" height="1" rx="0.3" ry="0.3" fill="#14263a" stroke="#0cf" stroke-width="0.2" />
  <rect x="7.5" y="3" width="1" height="2" rx="0.3" ry="0.3" fill="#14263a" stroke="#0cf" stroke-width="0.2" />
  <rect x="7.5" y="11" width="1" height="2" rx="0.3" ry="0.3" fill="#14263a" stroke="#0cf" stroke-width="0.2" />
  
  <!-- Energy particles -->
  <circle cx="6.5" cy="6.5" r="0.4" fill="#0cf" opacity="0.6" />
  <circle cx="9.5" cy="6.5" r="0.4" fill="#0cf" opacity="0.6" />
  <circle cx="6.5" cy="9.5" r="0.4" fill="#0cf" opacity="0.6" />
  <circle cx="9.5" cy="9.5" r="0.4" fill="#0cf" opacity="0.6" />
</svg>