<?xml version="1.0" encoding="UTF-8" standalone="no"?>
<svg width="16" height="16" viewBox="0 0 16 16" xmlns="http://www.w3.org/2000/svg">
  <rect width="16" height="16" fill="none" />
  
  <!-- Base metal ingot -->
  <polygon points="1,3 15,3 14,13 2,13" fill="#243e6f" />
  
  <!-- Highlight on top -->
  <polygon points="1,3 15,3 14,5 2,5" fill="#314e7f" />
  
  <!-- Shadow at bottom -->
  <polygon points="2,11 14,11 14,13 2,13" fill="#132e5f" />
  
  <!-- Circuit pattern -->
  <path d="M4,6 L12,6" stroke="#0af" stroke-width="0.5" />
  <path d="M3,8 L13,8" stroke="#0af" stroke-width="0.5" />
  <path d="M5,10 L11,10" stroke="#0af" stroke-width="0.5" />
  
  <!-- Connector nodes -->
  <circle cx="6" cy="8" r="0.8" fill="#09d" />
  <circle cx="10" cy="8" r="0.8" fill="#09d" />
  
  <!-- Vertical connectors -->
  <path d="M6,6 L6,10" stroke="#0af" stroke-width="0.4" />
  <path d="M10,6 L10,10" stroke="#0af" stroke-width="0.4" />
  
  <!-- Glow effect -->
  <rect x="2" y="4" width="12" height="8" fill="none" stroke="#0cf" stroke-width="0.3" opacity="0.4" />
  
  <!-- Shine effect -->
  <path d="M3,5 L4,5" stroke="#fff" stroke-width="0.3" opacity="0.6" />
  <path d="M12,5 L13,5" stroke="#fff" stroke-width="0.3" opacity="0.6" />
</svg>