<?xml version="1.0" encoding="UTF-8" standalone="no"?>
<svg width="16" height="16" viewBox="0 0 16 16" fill="none" xmlns="http://www.w3.org/2000/svg">
  <!-- Base shape -->
  <path d="M4 3.5L8 2L12 3.5L12 10.5L8 14L4 10.5L4 3.5Z" fill="#1a2b47"/>
  
  <!-- Metallic frame -->
  <path d="M4 3.5L8 2L12 3.5L12 10.5L8 14L4 10.5L4 3.5Z" stroke="#6a7484" stroke-width="0.5" fill="none"/>
  
  <!-- Inner panel -->
  <path d="M5 4.5L8 3.5L11 4.5L11 9.5L8 12L5 9.5L5 4.5Z" fill="#0d1a33"/>
  
  <!-- Tech grid -->
  <line x1="8" y1="4" x2="8" y2="12" stroke="#264373" stroke-width="0.5"/>
  <line x1="5" y1="8" x2="11" y2="8" stroke="#264373" stroke-width="0.5"/>
  
  <!-- Central element -->
  <circle cx="8" cy="8" r="2" fill="#0d1a33" stroke="#05d9e8" stroke-width="0.5"/>
  <circle cx="8" cy="8" r="1" fill="#05d9e8" opacity="0.7"/>
  
  <!-- Nano tech elements -->
  <circle cx="8" cy="5" r="0.5" fill="#05d9e8" opacity="0.7"/>
  <circle cx="8" cy="11" r="0.5" fill="#05d9e8" opacity="0.7"/>
  <circle cx="5" cy="8" r="0.5" fill="#05d9e8" opacity="0.7"/>
  <circle cx="11" cy="8" r="0.5" fill="#05d9e8" opacity="0.7"/>
  
  <!-- Nano particles -->
  <circle cx="9.5" cy="6.5" r="0.3" fill="#05d9e8" opacity="0.5"/>
  <circle cx="6.5" cy="6.5" r="0.3" fill="#05d9e8" opacity="0.5"/>
  <circle cx="9.5" cy="9.5" r="0.3" fill="#05d9e8" opacity="0.5"/>
  <circle cx="6.5" cy="9.5" r="0.3" fill="#05d9e8" opacity="0.5"/>
  
  <!-- Connection lines -->
  <line x1="8" y1="6" x2="8" y2="7" stroke="#05d9e8" stroke-width="0.3"/>
  <line x1="8" y1="9" x2="8" y2="10" stroke="#05d9e8" stroke-width="0.3"/>
  <line x1="6" y1="8" x2="7" y2="8" stroke="#05d9e8" stroke-width="0.3"/>
  <line x1="9" y1="8" x2="10" y2="8" stroke="#05d9e8" stroke-width="0.3"/>
</svg>