<?xml version="1.0" encoding="UTF-8" standalone="no"?>
<svg width="16" height="16" viewBox="0 0 16 16" fill="none" xmlns="http://www.w3.org/2000/svg">
  <!-- Dark blue base -->
  <rect width="16" height="16" fill="#1a2b47"/>
  
  <!-- Metallic frame -->
  <rect x="0" y="0" width="16" height="1" fill="#6a7484"/>
  <rect x="0" y="15" width="16" height="1" fill="#6a7484"/>
  <rect x="0" y="0" width="1" height="16" fill="#6a7484"/>
  <rect x="15" y="0" width="1" height="16" fill="#6a7484"/>
  
  <!-- Data panel -->
  <rect x="2" y="2" width="12" height="12" fill="#0d1a33"/>
  
  <!-- Display screen -->
  <rect x="3" y="3" width="10" height="5" fill="#081120" stroke="#05d9e8" stroke-width="0.5"/>
  
  <!-- Data display lines -->
  <line x1="4" y1="4" x2="12" y2="4" stroke="#05d9e8" stroke-width="0.5" opacity="0.7"/>
  <line x1="4" y1="5" x2="10" y2="5" stroke="#05d9e8" stroke-width="0.5" opacity="0.7"/>
  <line x1="4" y1="6" x2="11" y2="6" stroke="#05d9e8" stroke-width="0.5" opacity="0.7"/>
  <line x1="4" y1="7" x2="9" y2="7" stroke="#05d9e8" stroke-width="0.5" opacity="0.7"/>
  
  <!-- Control buttons -->
  <rect x="3" y="9" width="2" height="1" fill="#081120" stroke="#05d9e8" stroke-width="0.5"/>
  <rect x="6" y="9" width="2" height="1" fill="#081120" stroke="#05d9e8" stroke-width="0.5"/>
  <rect x="9" y="9" width="2" height="1" fill="#081120" stroke="#05d9e8" stroke-width="0.5"/>
  
  <!-- Data indicators -->
  <circle cx="3.5" cy="11.5" r="0.5" fill="#05d9e8" opacity="0.7"/>
  <circle cx="5.5" cy="11.5" r="0.5" fill="#05d9e8" opacity="0.7"/>
  
  <!-- Data ports -->
  <rect x="8" y="11" width="5" height="2" fill="#081120" stroke="#05d9e8" stroke-width="0.5"/>
  <rect x="9" y="11.5" width="1" height="1" fill="#05d9e8" opacity="0.3"/>
  <rect x="11" y="11.5" width="1" height="1" fill="#05d9e8" opacity="0.3"/>
</svg>