<?xml version="1.0" encoding="UTF-8" standalone="no"?>
<svg xmlns="http://www.w3.org/2000/svg" width="16" height="16" viewBox="0 0 16 16">
  <!-- Transparent background -->
  <rect width="16" height="16" fill="#0A192F" fill-opacity="0" />
  
  <!-- Outer wheel rim -->
  <circle cx="8" cy="8" r="6" fill="#0B2B5B" stroke="#4299E1" stroke-width="0.5" />
  
  <!-- Inner wheel -->
  <circle cx="8" cy="8" r="4" fill="#1A365D" stroke="#4299E1" stroke-width="0.3" />
  
  <!-- Hub -->
  <circle cx="8" cy="8" r="1.5" fill="#0B2B5B" stroke="#0BC5EA" stroke-width="0.3" />
  
  <!-- Center bolt -->
  <circle cx="8" cy="8" r="0.5" fill="#0BC5EA" opacity="0.8" />
  
  <!-- Spokes -->
  <line x1="8" y1="4" x2="8" y2="6.5" stroke="#0BC5EA" stroke-width="0.4" />
  <line x1="8" y1="9.5" x2="8" y2="12" stroke="#0BC5EA" stroke-width="0.4" />
  <line x1="4" y1="8" x2="6.5" y2="8" stroke="#0BC5EA" stroke-width="0.4" />
  <line x1="9.5" y1="8" x2="12" y2="8" stroke="#0BC5EA" stroke-width="0.4" />
  
  <!-- Diagonal spokes -->
  <line x1="5.5" y1="5.5" x2="7" y2="7" stroke="#0BC5EA" stroke-width="0.4" />
  <line x1="10.5" y1="5.5" x2="9" y2="7" stroke="#0BC5EA" stroke-width="0.4" />
  <line x1="5.5" y1="10.5" x2="7" y2="9" stroke="#0BC5EA" stroke-width="0.4" />
  <line x1="10.5" y1="10.5" x2="9" y2="9" stroke="#0BC5EA" stroke-width="0.4" />
  
  <!-- Tire treads -->
  <path d="M 13,8 A 5,5 0 0 1 8,13 5,5 0 0 1 3,8 5,5 0 0 1 8,3 5,5 0 0 1 13,8 Z" fill="none" stroke="#4299E1" stroke-width="0.2" stroke-dasharray="0.5,0.5" />
  
  <!-- Tech details -->
  <circle cx="8" cy="8" r="2.5" fill="none" stroke="#4299E1" stroke-width="0.2" />
</svg>