<?xml version="1.0" encoding="UTF-8" standalone="no"?>
<svg xmlns="http://www.w3.org/2000/svg" width="16" height="16" viewBox="0 0 16 16">
  <!-- Transparent background -->
  <rect width="16" height="16" fill="#0A192F" fill-opacity="0" />
  
  <!-- Base structure - workbench -->
  <rect x="1" y="10" width="14" height="5" rx="0.5" ry="0.5" fill="#0B2B5B" stroke="#4299E1" stroke-width="0.3" />
  
  <!-- Workbench surface -->
  <rect x="2" y="9" width="12" height="1" rx="0.3" ry="0.3" fill="#1A365D" stroke="#4299E1" stroke-width="0.2" />
  
  <!-- Central weapon assembly area -->
  <rect x="3" y="2" width="10" height="7" rx="0.5" ry="0.5" fill="#0B2B5B" stroke="#4299E1" stroke-width="0.4" />
  
  <!-- High-tech control panel -->
  <rect x="4" y="3" width="8" height="2" rx="0.3" ry="0.3" fill="#1A365D" stroke="#0BC5EA" stroke-width="0.2" />
  
  <!-- Weapon mounting rack -->
  <rect x="5" y="6" width="6" height="2" rx="0.2" ry="0.2" fill="#1A365D" stroke="#4299E1" stroke-width="0.2" />
  
  <!-- Control lights -->
  <circle cx="5" cy="4" r="0.4" fill="#0BC5EA" opacity="0.9" />
  <circle cx="7" cy="4" r="0.4" fill="#0BC5EA" opacity="0.9" />
  <circle cx="9" cy="4" r="0.4" fill="#0BC5EA" opacity="0.9" />
  <circle cx="11" cy="4" r="0.4" fill="#0BC5EA" opacity="0.9" />
  
  <!-- Tech patterns for futuristic look -->
  <line x1="3.5" y1="5" x2="12.5" y2="5" stroke="#4299E1" stroke-width="0.2" stroke-dasharray="0.5,0.5" />
  <line x1="5" y1="8" x2="11" y2="8" stroke="#4299E1" stroke-width="0.2" />
  
  <!-- Circuit pattern at the base -->
  <path d="M2,11 L4,11 L4,12 L6,12 L6,13 L2,13 Z" fill="#1A365D" stroke="#0BC5EA" stroke-width="0.1" />
  <path d="M10,11 L14,11 L14,13 L12,13 L12,12 L10,12 Z" fill="#1A365D" stroke="#0BC5EA" stroke-width="0.1" />
  
  <!-- Energy glow effect -->
  <rect x="5.5" y="6.5" width="5" height="1" rx="0.2" ry="0.2" fill="#0BC5EA" fill-opacity="0.3" />
</svg>