<?xml version="1.0" encoding="UTF-8" standalone="no"?>
<svg xmlns="http://www.w3.org/2000/svg" width="16" height="16" viewBox="0 0 16 16">
  <!-- Transparent background -->
  <rect width="16" height="16" fill="#0A192F" fill-opacity="0" />
  
  <!-- Base plate (dark blue) -->
  <rect x="1" y="13" width="14" height="2" rx="0.5" fill="#0B2B5B" stroke="#4299E1" stroke-width="0.2" />
  
  <!-- Workstation base (dark gray-blue) -->
  <rect x="2" y="11" width="12" height="2" rx="0.5" fill="#0F3C6E" stroke="#4299E1" stroke-width="0.2" />
  
  <!-- Drone landing pad (central platform) -->
  <rect x="5" y="7" width="6" height="4" rx="0.5" fill="#1A365D" stroke="#4299E1" stroke-width="0.3" />
  
  <!-- Landing pad markings -->
  <circle cx="8" cy="9" r="2" fill="none" stroke="#4299E1" stroke-width="0.2" stroke-dasharray="0.3,0.3" />
  <path d="M6,9 L10,9 M8,7 L8,11" stroke="#4299E1" stroke-width="0.15" />
  
  <!-- Control console (left) -->
  <rect x="2" y="7" width="2.5" height="3" rx="0.3" fill="#0B2B5B" stroke="#4299E1" stroke-width="0.2" />
  
  <!-- Control console (right) -->
  <rect x="11.5" y="7" width="2.5" height="3" rx="0.3" fill="#0B2B5B" stroke="#4299E1" stroke-width="0.2" />
  
  <!-- Console screens -->
  <rect x="2.3" y="7.5" width="1.9" height="1.5" rx="0.2" fill="#1A365D" stroke="#4299E1" stroke-width="0.1" />
  <rect x="11.8" y="7.5" width="1.9" height="1.5" rx="0.2" fill="#1A365D" stroke="#4299E1" stroke-width="0.1" />
  
  <!-- Screen glow effects -->
  <rect x="2.5" y="7.7" width="1.5" height="1.1" rx="0.1" fill="#0BC5EA" fill-opacity="0.15" />
  <rect x="12" y="7.7" width="1.5" height="1.1" rx="0.1" fill="#0BC5EA" fill-opacity="0.15" />
  
  <!-- Drone bay charging pads -->
  <rect x="6" y="8" width="1" height="1" rx="0.2" fill="#0F3C6E" stroke="#4299E1" stroke-width="0.1" />
  <rect x="9" y="8" width="1" height="1" rx="0.2" fill="#0F3C6E" stroke="#4299E1" stroke-width="0.1" />
  
  <!-- Charging indicators (glowing cyan) -->
  <circle cx="6.5" cy="8.5" r="0.3" fill="#0BC5EA" opacity="0.9" />
  <circle cx="9.5" cy="8.5" r="0.3" fill="#0BC5EA" opacity="0.9" />
  
  <!-- Control buttons -->
  <circle cx="3" cy="9.5" r="0.3" fill="#1A365D" stroke="#4299E1" stroke-width="0.1" />
  <circle cx="3" cy="9.5" r="0.15" fill="#0BC5EA" opacity="0.8" />
  
  <circle cx="13" cy="9.5" r="0.3" fill="#1A365D" stroke="#4299E1" stroke-width="0.1" />
  <circle cx="13" cy="9.5" r="0.15" fill="#0BC5EA" opacity="0.8" />
  
  <!-- Antenna array -->
  <line x1="4" y1="5" x2="4" y2="7" stroke="#4299E1" stroke-width="0.2" />
  <line x1="12" y1="5" x2="12" y2="7" stroke="#4299E1" stroke-width="0.2" />
  <line x1="8" y1="3.5" x2="8" y2="7" stroke="#4299E1" stroke-width="0.2" />
  
  <!-- Antenna tip lights -->
  <circle cx="4" cy="5" r="0.3" fill="#0BC5EA" opacity="0.9" />
  <circle cx="12" cy="5" r="0.3" fill="#0BC5EA" opacity="0.9" />
  <circle cx="8" cy="3.5" r="0.3" fill="#0BC5EA" opacity="0.9" />
  
  <!-- Tech patterns -->
  <path d="M7,10.5 L9,10.5" stroke="#0BC5EA" stroke-width="0.1" />
  <path d="M2.5,8.8 L3.5,8.8" stroke="#0BC5EA" stroke-width="0.1" />
  <path d="M12.5,8.8 L13.5,8.8" stroke="#0BC5EA" stroke-width="0.1" />
</svg>