<?xml version="1.0" encoding="UTF-8" standalone="no"?>
<svg xmlns="http://www.w3.org/2000/svg" width="16" height="16" viewBox="0 0 16 16">
  <!-- Transparent background -->
  <rect width="16" height="16" fill="#0A192F" fill-opacity="0" />
  
  <!-- Base platform -->
  <rect x="2" y="10" width="12" height="5" rx="0.5" ry="0.5" fill="#0B2B5B" stroke="#4299E1" stroke-width="0.3" />
  
  <!-- Landing pad -->
  <rect x="3" y="9" width="10" height="1.5" rx="0.3" ry="0.3" fill="#1A365D" stroke="#4299E1" stroke-width="0.2" />
  <circle cx="8" cy="10" r="3.5" fill="none" stroke="#0BC5EA" stroke-width="0.2" stroke-dasharray="0.8,0.4" />
  
  <!-- Central pillar -->
  <rect x="7" y="2" width="2" height="7" rx="0.2" ry="0.2" fill="#1A365D" stroke="#4299E1" stroke-width="0.2" />
  
  <!-- Control hub -->
  <rect x="5" y="3" width="6" height="2.5" rx="0.3" ry="0.3" fill="#0B2B5B" stroke="#4299E1" stroke-width="0.2" />
  
  <!-- Antenna -->
  <line x1="8" y1="0.5" x2="8" y2="2" stroke="#4299E1" stroke-width="0.3" />
  <circle cx="8" cy="0.5" r="0.3" fill="#0BC5EA" />
  
  <!-- Status indicators -->
  <circle cx="6" cy="4" r="0.4" fill="#0BC5EA" opacity="0.9" />
  <circle cx="8" cy="4" r="0.4" fill="#0BC5EA" opacity="0.9" />
  <circle cx="10" cy="4" r="0.4" fill="#0BC5EA" opacity="0.9" />
  
  <!-- Landing lights -->
  <circle cx="5" cy="9.8" r="0.3" fill="#0BC5EA" opacity="0.8" />
  <circle cx="11" cy="9.8" r="0.3" fill="#0BC5EA" opacity="0.8" />
  
  <!-- Tech pattern on base -->
  <path d="M5,11.5 C6,12.5 10,12.5 11,11.5" fill="none" stroke="#0BC5EA" stroke-width="0.1" />
  <path d="M4,13 L12,13" stroke="#0BC5EA" stroke-width="0.1" stroke-dasharray="0.5,0.5" />
  
  <!-- Landing pad markings -->
  <circle cx="8" cy="10" r="2" fill="none" stroke="#0BC5EA" stroke-width="0.1" />
  <path d="M6,10 L10,10 M8,8 L8,12" stroke="#0BC5EA" stroke-width="0.1" />
</svg>