<?xml version="1.0" encoding="UTF-8" standalone="no"?>
<svg xmlns="http://www.w3.org/2000/svg" width="16" height="16" viewBox="0 0 16 16">
  <!-- Transparent background -->
  <rect width="16" height="16" fill="#0A192F" fill-opacity="0" />
  
  <!-- Base structure - console -->
  <rect x="1" y="3" width="14" height="10" rx="0.5" ry="0.5" fill="#0B2B5B" stroke="#4299E1" stroke-width="0.3" />
  
  <!-- Top panel -->
  <rect x="2" y="4" width="12" height="3" rx="0.3" ry="0.3" fill="#1A365D" stroke="#4299E1" stroke-width="0.2" />
  
  <!-- Bottom section -->
  <rect x="2" y="8" width="12" height="4" rx="0.3" ry="0.3" fill="#1A365D" stroke="#4299E1" stroke-width="0.2" />
  
  <!-- Display screen -->
  <rect x="3" y="4.5" width="10" height="2" rx="0.2" ry="0.2" fill="#0A192F" stroke="#0BC5EA" stroke-width="0.3" />
  
  <!-- Screen glow -->
  <rect x="3.5" y="5" width="9" height="1" rx="0.1" ry="0.1" fill="#0BC5EA" fill-opacity="0.3" />
  
  <!-- Control panels -->
  <rect x="3" y="8.5" width="4" height="3" rx="0.2" ry="0.2" fill="#0A192F" stroke="#4299E1" stroke-width="0.2" />
  <rect x="9" y="8.5" width="4" height="3" rx="0.2" ry="0.2" fill="#0A192F" stroke="#4299E1" stroke-width="0.2" />
  
  <!-- Control buttons -->
  <circle cx="4" cy="9.5" r="0.4" fill="#0BC5EA" opacity="0.9" />
  <circle cx="5" cy="9.5" r="0.4" fill="#4299E1" opacity="0.8" />
  <circle cx="6" cy="9.5" r="0.4" fill="#0BC5EA" opacity="0.9" />
  
  <circle cx="4" cy="10.5" r="0.4" fill="#4299E1" opacity="0.8" />
  <circle cx="5" cy="10.5" r="0.4" fill="#0BC5EA" opacity="0.9" />
  <circle cx="6" cy="10.5" r="0.4" fill="#4299E1" opacity="0.8" />
  
  <!-- Data ports -->
  <rect x="9.5" y="9" width="3" height="0.5" rx="0.2" ry="0.2" fill="#0BC5EA" opacity="0.8" />
  <rect x="9.5" y="10" width="3" height="0.5" rx="0.2" ry="0.2" fill="#0BC5EA" opacity="0.8" />
  <rect x="9.5" y="11" width="3" height="0.5" rx="0.2" ry="0.2" fill="#0BC5EA" opacity="0.8" />
  
  <!-- Circuit pattern at the base -->
  <path d="M2,12 L4,12 L4,13 L7,13 L7,12 L9,12 L9,13 L12,13 L12,12 L14,12" 
        fill="none" stroke="#0BC5EA" stroke-width="0.1" stroke-dasharray="0.3,0.3" />
  
  <!-- Antenna -->
  <line x1="8" y1="1" x2="8" y2="3" stroke="#4299E1" stroke-width="0.5" />
  <circle cx="8" cy="1" r="0.5" fill="#0BC5EA" />
</svg>