<?xml version="1.0" encoding="UTF-8" standalone="no"?>
<svg xmlns="http://www.w3.org/2000/svg" width="16" height="16" viewBox="0 0 16 16">
  <!-- Transparent background -->
  <rect width="16" height="16" fill="#0A192F" fill-opacity="0" />
  
  <!-- Base plate (dark blue) -->
  <rect x="1" y="13" width="14" height="2" rx="0.5" fill="#0B2B5B" stroke="#4299E1" stroke-width="0.2" />
  
  <!-- Table base (dark gray-blue) -->
  <rect x="3" y="11" width="10" height="2" rx="0.5" fill="#0F3C6E" stroke="#4299E1" stroke-width="0.2" />
  
  <!-- Control panel surface -->
  <rect x="2" y="8" width="12" height="3" rx="0.5" fill="#1A365D" stroke="#4299E1" stroke-width="0.2" />
  
  <!-- Screen display -->
  <rect x="3" y="3" width="10" height="5" rx="0.5" fill="#0B2B5B" stroke="#4299E1" stroke-width="0.3" />
  
  <!-- Screen glow effect -->
  <rect x="3.5" y="3.5" width="9" height="4" rx="0.3" fill="#0BC5EA" fill-opacity="0.15" />
  
  <!-- Robot technical diagram on screen -->
  <path d="M8,4 L8,6 M6,5 L10,5" stroke="#0BC5EA" stroke-width="0.2" />
  <circle cx="8" cy="5" r="1.5" fill="none" stroke="#0BC5EA" stroke-width="0.15" />
  
  <!-- Robot arm assembly area -->
  <rect x="7" y="2" width="2" height="1" fill="#0B2B5B" stroke="#4299E1" stroke-width="0.15" />
  
  <!-- Robot parts storage -->
  <rect x="2" y="9" width="2" height="1.5" rx="0.2" fill="#0F3C6E" stroke="#4299E1" stroke-width="0.15" />
  <rect x="12" y="9" width="2" height="1.5" rx="0.2" fill="#0F3C6E" stroke="#4299E1" stroke-width="0.15" />
  
  <!-- Control buttons -->
  <circle cx="5" cy="9.5" r="0.5" fill="#1A365D" stroke="#4299E1" stroke-width="0.15" />
  <circle cx="5" cy="9.5" r="0.2" fill="#0BC5EA" opacity="0.9" />
  
  <circle cx="7" cy="9.5" r="0.5" fill="#1A365D" stroke="#4299E1" stroke-width="0.15" />
  <circle cx="7" cy="9.5" r="0.2" fill="#0BC5EA" opacity="0.9" />
  
  <circle cx="9" cy="9.5" r="0.5" fill="#1A365D" stroke="#4299E1" stroke-width="0.15" />
  <circle cx="9" cy="9.5" r="0.2" fill="#0BC5EA" opacity="0.9" />
  
  <circle cx="11" cy="9.5" r="0.5" fill="#1A365D" stroke="#4299E1" stroke-width="0.15" />
  <circle cx="11" cy="9.5" r="0.2" fill="#0BC5EA" opacity="0.9" />
  
  <!-- Circuit patterns on the sides -->
  <path d="M2,10.5 L3,10.5 M2.5,10 L2.5,11" stroke="#0BC5EA" stroke-width="0.1" />
  <path d="M13,10.5 L14,10.5 M13.5,10 L13.5,11" stroke="#0BC5EA" stroke-width="0.1" />
  
  <!-- Technical glow highlights -->
  <circle cx="4" cy="6" r="0.3" fill="#0BC5EA" opacity="0.7" />
  <circle cx="12" cy="6" r="0.3" fill="#0BC5EA" opacity="0.7" />
</svg>