<?xml version="1.0" encoding="UTF-8" standalone="no"?>
<svg xmlns="http://www.w3.org/2000/svg" width="16" height="16" viewBox="0 0 16 16">
  <!-- Base dark blue background -->
  <rect width="16" height="16" fill="#0A192F" />
  
  <!-- Tech grid pattern -->
  <path d="M0,0 L16,0 L16,16 L0,16 Z" fill="none" stroke="#1E3A8A" stroke-width="0.3" />
  <path d="M0,4 L16,4" stroke="#1E3A8A" stroke-width="0.2" />
  <path d="M0,8 L16,8" stroke="#1E3A8A" stroke-width="0.2" />
  <path d="M0,12 L16,12" stroke="#1E3A8A" stroke-width="0.2" />
  <path d="M4,0 L4,16" stroke="#1E3A8A" stroke-width="0.2" />
  <path d="M8,0 L8,16" stroke="#1E3A8A" stroke-width="0.2" />
  <path d="M12,0 L12,16" stroke="#1E3A8A" stroke-width="0.2" />
  
  <!-- Rover body -->
  <rect x="3" y="5" width="10" height="4" rx="1" ry="1" fill="#0B2B5B" stroke="#4299E1" stroke-width="0.5" />
  
  <!-- Rover cabin -->
  <rect x="5" y="3" width="6" height="3" rx="1" ry="1" fill="#1A365D" stroke="#4299E1" stroke-width="0.5" />
  
  <!-- Rover wheels -->
  <circle cx="4" cy="11" r="2" fill="#1A365D" stroke="#4299E1" stroke-width="0.5" />
  <circle cx="12" cy="11" r="2" fill="#1A365D" stroke="#4299E1" stroke-width="0.5" />
  
  <!-- Wheel details -->
  <circle cx="4" cy="11" r="1" fill="none" stroke="#0BC5EA" stroke-width="0.3" />
  <circle cx="12" cy="11" r="1" fill="none" stroke="#0BC5EA" stroke-width="0.3" />
  
  <!-- Glowing antenna -->
  <line x1="8" y1="3" x2="8" y2="1" stroke="#4299E1" stroke-width="0.5" />
  <circle cx="8" cy="1" r="0.5" fill="#0BC5EA" opacity="0.8" />
  
  <!-- Cabin window -->
  <rect x="6" y="3.5" width="4" height="1.5" rx="0.3" ry="0.3" fill="#0BC5EA" opacity="0.4" />
  
  <!-- Tech details and lights -->
  <rect x="3.5" y="6" width="1" height="1" fill="#0BC5EA" opacity="0.8" />
  <rect x="11.5" y="6" width="1" height="1" fill="#0BC5EA" opacity="0.8" />
  
  <!-- Solar panels -->
  <rect x="5" y="5.5" width="2.5" height="1.5" fill="#0B2B5B" stroke="#0BC5EA" stroke-width="0.2" />
  <rect x="8.5" y="5.5" width="2.5" height="1.5" fill="#0B2B5B" stroke="#0BC5EA" stroke-width="0.2" />
  
  <!-- Circuit paths -->
  <path d="M3,6 L3,9 L4,10 L4,12" fill="none" stroke="#0BC5EA" stroke-width="0.3" opacity="0.6" />
  <path d="M13,6 L13,9 L12,10 L12,12" fill="none" stroke="#0BC5EA" stroke-width="0.3" opacity="0.6" />
</svg>