<?xml version="1.0" encoding="UTF-8" standalone="no"?>
<svg xmlns="http://www.w3.org/2000/svg" width="16" height="16" viewBox="0 0 16 16">
  <!-- Base dark blue background -->
  <rect width="16" height="16" fill="#0A192F" />
  
  <!-- Light blue tech pattern -->
  <path d="M0,0 L16,0 L16,16 L0,16 Z" fill="none" stroke="#1E3A8A" stroke-width="0.5" />
  <path d="M2,2 L14,2 L14,14 L2,14 Z" fill="none" stroke="#1E3A8A" stroke-width="0.5" />
  
  <!-- Glowing cyan accents -->
  <rect x="4" y="4" width="8" height="8" fill="none" stroke="#0BC5EA" stroke-width="0.5" opacity="0.8" />
  <rect x="6" y="6" width="4" height="4" fill="none" stroke="#0BC5EA" stroke-width="0.5" opacity="0.8" />
  
  <!-- Vehicle chassis outline -->
  <rect x="3" y="5" width="10" height="6" rx="1" ry="1" fill="#0B2B5B" stroke="#4299E1" stroke-width="0.5" />
  
  <!-- Vehicle details -->
  <circle cx="5" cy="12" r="1.5" fill="#1A365D" stroke="#4299E1" stroke-width="0.5" />
  <circle cx="11" cy="12" r="1.5" fill="#1A365D" stroke="#4299E1" stroke-width="0.5" />
  
  <!-- Tech details -->
  <line x1="4" y1="7" x2="12" y2="7" stroke="#4299E1" stroke-width="0.5" />
  <line x1="4" y1="9" x2="12" y2="9" stroke="#4299E1" stroke-width="0.5" />
  
  <!-- Glowing display -->
  <rect x="6" y="3" width="4" height="1.5" rx="0.5" ry="0.5" fill="#0BC5EA" opacity="0.8" />
  
  <!-- Circuit paths -->
  <path d="M2,2 L2,6 L4,8 L4,12" fill="none" stroke="#0BC5EA" stroke-width="0.3" opacity="0.6" />
  <path d="M14,2 L14,6 L12,8 L12,12" fill="none" stroke="#0BC5EA" stroke-width="0.3" opacity="0.6" />
</svg>