<?xml version="1.0" encoding="UTF-8" standalone="no"?>
<svg width="16" height="16" viewBox="0 0 16 16" xmlns="http://www.w3.org/2000/svg">
  <!-- Energy Crystal Item - Enhanced Version -->
  
  <!-- Background Glow Effects -->
  <defs>
    <filter id="glow">
      <feGaussianBlur stdDeviation="0.5" result="blur"/>
      <feComposite in="SourceGraphic" in2="blur" operator="over"/>
    </filter>
    
    <filter id="powerCore">
      <feGaussianBlur stdDeviation="1" result="blur"/>
      <feComposite in="SourceGraphic" in2="blur" operator="over"/>
    </filter>
    
    <linearGradient id="crystalGradient" x1="0%" y1="0%" x2="100%" y2="100%">
      <stop offset="0%" stop-color="#0a3578" />
      <stop offset="50%" stop-color="#0f4c9e" />
      <stop offset="100%" stop-color="#0a3578" />
    </linearGradient>
    
    <linearGradient id="coreGradient" x1="0%" y1="0%" x2="100%" y2="100%">
      <stop offset="0%" stop-color="#4ca5ff" />
      <stop offset="50%" stop-color="#a0d0ff" />
      <stop offset="100%" stop-color="#4ca5ff" />
    </linearGradient>
    
    <linearGradient id="edgeGlow" x1="0%" y1="0%" x2="100%" y2="0%">
      <stop offset="0%" stop-color="#2377de" stop-opacity="0.3" />
      <stop offset="50%" stop-color="#4ca5ff" stop-opacity="0.8" />
      <stop offset="100%" stop-color="#2377de" stop-opacity="0.3" />
    </linearGradient>
  </defs>

  <!-- Crystal Base Shape with Facets -->
  <path d="M8 1L3 5L3 11L8 15L13 11L13 5Z" fill="#070b18" stroke="#112452" stroke-width="0.5"/>
  
  <!-- Crystal Facets -->
  <path d="M8 1L3 5L8 8Z" fill="#091225" stroke="#112452" stroke-width="0.2"/>
  <path d="M8 1L13 5L8 8Z" fill="#091225" stroke="#112452" stroke-width="0.2"/>
  <path d="M3 5L3 11L8 8Z" fill="#091225" stroke="#112452" stroke-width="0.2"/>
  <path d="M13 5L13 11L8 8Z" fill="#091225" stroke="#112452" stroke-width="0.2"/>
  <path d="M3 11L8 15L8 8Z" fill="#091225" stroke="#112452" stroke-width="0.2"/>
  <path d="M13 11L8 15L8 8Z" fill="#091225" stroke="#112452" stroke-width="0.2"/>

  <!-- Internal Crystal Structure -->
  <path d="M8 3L5 6L5 10L8 13L11 10L11 6Z" fill="url(#crystalGradient)" stroke="#1d3b7a" stroke-width="0.3" opacity="0.9"/>
  
  <!-- Internal Facet Lines -->
  <path d="M8 3L5 6M8 3L11 6M5 6L5 10M11 6L11 10M5 10L8 13M11 10L8 13" stroke="#2377de" stroke-width="0.2" opacity="0.6"/>

  <!-- Crystal Core Structure -->
  <path d="M8 5L6.5 6.5L6.5 9.5L8 11L9.5 9.5L9.5 6.5Z" fill="#0f4c9e" stroke="#2377de" stroke-width="0.3" opacity="0.9"/>
  
  <!-- Energy Glow in Center -->
  <circle cx="8" cy="8" r="1.5" fill="url(#coreGradient)" filter="url(#powerCore)" opacity="0.9">
    <animate attributeName="opacity" values="0.7;0.9;0.7" dur="3s" repeatCount="indefinite" />
  </circle>
  
  <!-- Energy Core -->
  <circle cx="8" cy="8" r="0.8" fill="#a0d0ff" opacity="0.9">
    <animate attributeName="r" values="0.8;1;0.8" dur="2s" repeatCount="indefinite" />
  </circle>
  
  <!-- Facet Edge Highlights -->
  <path d="M5 6L8 3" stroke="url(#edgeGlow)" stroke-width="0.5" fill="none"/>
  <path d="M8 3L11 6" stroke="url(#edgeGlow)" stroke-width="0.5" fill="none"/>
  <path d="M5 10L8 13" stroke="url(#edgeGlow)" stroke-width="0.5" fill="none"/>
  <path d="M8 13L11 10" stroke="url(#edgeGlow)" stroke-width="0.5" fill="none"/>
  
  <!-- Energy Flow Lines -->
  <path d="M8 3L8 5" stroke="#4ca5ff" stroke-width="0.2" opacity="0.7">
    <animate attributeName="opacity" values="0.7;0.9;0.7" dur="1.5s" repeatCount="indefinite" />
  </path>
  <path d="M8 11L8 13" stroke="#4ca5ff" stroke-width="0.2" opacity="0.7">
    <animate attributeName="opacity" values="0.7;0.9;0.7" dur="1.7s" repeatCount="indefinite" />
  </path>
  <path d="M5 6L6.5 6.5" stroke="#4ca5ff" stroke-width="0.2" opacity="0.7">
    <animate attributeName="opacity" values="0.7;0.9;0.7" dur="1.3s" repeatCount="indefinite" />
  </path>
  <path d="M11 6L9.5 6.5" stroke="#4ca5ff" stroke-width="0.2" opacity="0.7">
    <animate attributeName="opacity" values="0.7;0.9;0.7" dur="1.9s" repeatCount="indefinite" />
  </path>
  <path d="M5 10L6.5 9.5" stroke="#4ca5ff" stroke-width="0.2" opacity="0.7">
    <animate attributeName="opacity" values="0.7;0.9;0.7" dur="1.6s" repeatCount="indefinite" />
  </path>
  <path d="M11 10L9.5 9.5" stroke="#4ca5ff" stroke-width="0.2" opacity="0.7">
    <animate attributeName="opacity" values="0.7;0.9;0.7" dur="2.1s" repeatCount="indefinite" />
  </path>
  
  <!-- Energy Sparkles on Facet Junctions -->
  <circle cx="8" cy="3" r="0.15" fill="#7bc5ff" opacity="0.9">
    <animate attributeName="opacity" values="0.9;0.5;0.9" dur="1.2s" repeatCount="indefinite" />
  </circle>
  <circle cx="5" cy="6" r="0.15" fill="#7bc5ff" opacity="0.9">
    <animate attributeName="opacity" values="0.5;0.9;0.5" dur="1.4s" repeatCount="indefinite" />
  </circle>
  <circle cx="11" cy="6" r="0.15" fill="#7bc5ff" opacity="0.9">
    <animate attributeName="opacity" values="0.9;0.5;0.9" dur="1.6s" repeatCount="indefinite" />
  </circle>
  <circle cx="5" cy="10" r="0.15" fill="#7bc5ff" opacity="0.9">
    <animate attributeName="opacity" values="0.5;0.9;0.5" dur="1.8s" repeatCount="indefinite" />
  </circle>
  <circle cx="11" cy="10" r="0.15" fill="#7bc5ff" opacity="0.9">
    <animate attributeName="opacity" values="0.9;0.5;0.9" dur="2.0s" repeatCount="indefinite" />
  </circle>
  <circle cx="8" cy="13" r="0.15" fill="#7bc5ff" opacity="0.9">
    <animate attributeName="opacity" values="0.5;0.9;0.5" dur="2.2s" repeatCount="indefinite" />
  </circle>
  
  <!-- Interior Energy Sparkles -->
  <circle cx="7" cy="7" r="0.1" fill="#a0d0ff" opacity="0.8"/>
  <circle cx="9" cy="7" r="0.1" fill="#a0d0ff" opacity="0.8"/>
  <circle cx="7" cy="9" r="0.1" fill="#a0d0ff" opacity="0.8"/>
  <circle cx="9" cy="9" r="0.1" fill="#a0d0ff" opacity="0.8"/>
  
  <!-- Light Reflection Highlight -->
  <path d="M7.5 7L8.5 7L8 7.5Z" fill="#ffffff" opacity="0.6"/>
</svg>