<?xml version="1.0" encoding="UTF-8" standalone="no"?>
<svg width="16" height="16" viewBox="0 0 16 16" xmlns="http://www.w3.org/2000/svg">
  <!-- Energy Cell Item -->
  
  <!-- Background Glow Effect -->
  <filter id="glow">
    <feGaussianBlur stdDeviation="0.5" result="blur"/>
    <feComposite in="SourceGraphic" in2="blur" operator="over"/>
  </filter>
  
  <!-- Cell Base Shape -->
  <rect x="3" y="2" width="10" height="12" rx="1" ry="1" fill="#070b18" stroke="#112452" stroke-width="0.5"/>
  
  <!-- Cell Inner Container -->
  <rect x="4" y="3" width="8" height="10" rx="0.5" ry="0.5" fill="#0c1a3a" stroke="#1d3b7a" stroke-width="0.3"/>
  
  <!-- Energy Level Indicator -->
  <rect x="5" y="4" width="6" height="8" fill="#0f4c9e" filter="url(#glow)"/>
  
  <!-- Cell Terminals -->
  <rect x="7" y="1.5" width="2" height="0.5" rx="0.2" ry="0.2" fill="#1d3b7a" stroke="#2377de" stroke-width="0.2"/>
  <rect x="7" y="14" width="2" height="0.5" rx="0.2" ry="0.2" fill="#1d3b7a" stroke="#2377de" stroke-width="0.2"/>
  
  <!-- Technical Pattern/Circuitry -->
  <line x1="5" y1="6" x2="11" y2="6" stroke="#4ca5ff" stroke-width="0.2" opacity="0.7"/>
  <line x1="5" y1="8" x2="11" y2="8" stroke="#4ca5ff" stroke-width="0.2" opacity="0.7"/>
  <line x1="5" y1="10" x2="11" y2="10" stroke="#4ca5ff" stroke-width="0.2" opacity="0.7"/>
  
  <!-- Glowing Energy Core -->
  <rect x="6" y="5" width="4" height="6" fill="#4ca5ff" opacity="0.3" filter="url(#glow)"/>
  
  <!-- Energy Capacity Display -->
  <rect x="6.5" y="7" width="3" height="2" rx="0.3" ry="0.3" fill="#0a0e17" stroke="#2377de" stroke-width="0.2"/>
  
  <!-- Small Indicator Lights -->
  <circle cx="8" cy="5" r="0.3" fill="#7bc5ff"/>
  <circle cx="8" cy="11" r="0.3" fill="#7bc5ff"/>
  
  <!-- Status Light -->
  <circle cx="8" cy="8" r="0.6" fill="#ffffff" opacity="0.9" filter="url(#glow)"/>
  
  <!-- Connecting Pin Indicators -->
  <circle cx="8" cy="1.8" r="0.15" fill="#7bc5ff"/>
  <circle cx="8" cy="14.2" r="0.15" fill="#7bc5ff"/>
</svg>