<?xml version="1.0" encoding="UTF-8" standalone="no"?>
<svg xmlns="http://www.w3.org/2000/svg" width="16" height="16" viewBox="0 0 16 16">
  <!-- Transparent background -->
  <rect width="16" height="16" fill="#0A192F" fill-opacity="0" />
  
  <!-- Energy cell base -->
  <rect x="4" y="2" width="8" height="12" rx="1" ry="1" fill="#0B2B5B" stroke="#4299E1" stroke-width="0.4" />
  
  <!-- Cell terminals -->
  <rect x="5" y="1.5" width="2" height="0.8" rx="0.4" ry="0.4" fill="#1A365D" stroke="#4299E1" stroke-width="0.2" />
  <rect x="9" y="1.5" width="2" height="0.8" rx="0.4" ry="0.4" fill="#1A365D" stroke="#4299E1" stroke-width="0.2" />
  
  <!-- Energy level window -->
  <rect x="5.5" y="3.5" width="5" height="9" rx="0.5" ry="0.5" fill="#1A365D" stroke="#4299E1" stroke-width="0.2" />
  
  <!-- Energy glow (cyan) -->
  <rect x="6" y="7" width="4" height="5" rx="0.3" ry="0.3" fill="#0BC5EA" fill-opacity="0.6" />
  
  <!-- Energy level indicators -->
  <line x1="6" y1="4.5" x2="10" y2="4.5" stroke="#4299E1" stroke-width="0.1" />
  <line x1="6" y1="6" x2="10" y2="6" stroke="#4299E1" stroke-width="0.1" />
  <line x1="6" y1="7.5" x2="10" y2="7.5" stroke="#4299E1" stroke-width="0.1" />
  <line x1="6" y1="9" x2="10" y2="9" stroke="#4299E1" stroke-width="0.1" />
  <line x1="6" y1="10.5" x2="10" y2="10.5" stroke="#4299E1" stroke-width="0.1" />
  
  <!-- Tech pattern decoration -->
  <path d="M6,8 L7,8 L7,9 L8,9 L8,10 L6,10 Z" fill="#0BC5EA" fill-opacity="0.8" />
  <path d="M9,9 L10,9 L10,11 L9,11 L9,10 L8,10 L8,9 Z" fill="#0BC5EA" fill-opacity="0.8" />
  
  <!-- Charge level glow -->
  <circle cx="8" cy="9" r="1.8" fill="#0BC5EA" fill-opacity="0.2" />
</svg>