<?xml version="1.0" encoding="UTF-8" standalone="no"?>
<svg xmlns="http://www.w3.org/2000/svg" width="16" height="16" viewBox="0 0 16 16">
  <!-- Transparent background -->
  <rect width="16" height="16" fill="#0A192F" fill-opacity="0" />
  
  <!-- Main armory cabinet -->
  <rect x="1" y="1" width="14" height="14" rx="0.3" ry="0.3" fill="#0B2B5B" stroke="#4299E1" stroke-width="0.3" />
  
  <!-- Cabinet door details -->
  <rect x="2" y="2" width="12" height="12" rx="0.2" ry="0.2" fill="#1A365D" stroke="#4299E1" stroke-width="0.2" />
  
  <!-- Door handle -->
  <rect x="12" y="7.5" width="0.8" height="1" rx="0.2" ry="0.2" fill="#0BC5EA" stroke="#4299E1" stroke-width="0.1" />
  
  <!-- Door seam -->
  <line x1="8" y1="2" x2="8" y2="14" stroke="#4299E1" stroke-width="0.2" />
  
  <!-- Weapon racks -->
  <rect x="3" y="3.5" width="4" height="0.5" rx="0.1" ry="0.1" fill="#0BC5EA" fill-opacity="0.5" />
  <rect x="3" y="5.5" width="4" height="0.5" rx="0.1" ry="0.1" fill="#0BC5EA" fill-opacity="0.5" />
  <rect x="3" y="7.5" width="4" height="0.5" rx="0.1" ry="0.1" fill="#0BC5EA" fill-opacity="0.5" />
  <rect x="3" y="9.5" width="4" height="0.5" rx="0.1" ry="0.1" fill="#0BC5EA" fill-opacity="0.5" />
  <rect x="3" y="11.5" width="4" height="0.5" rx="0.1" ry="0.1" fill="#0BC5EA" fill-opacity="0.5" />
  
  <!-- Weapon storage slots -->
  <rect x="9" y="3.5" width="4" height="0.5" rx="0.1" ry="0.1" fill="#0BC5EA" fill-opacity="0.5" />
  <rect x="9" y="5.5" width="4" height="0.5" rx="0.1" ry="0.1" fill="#0BC5EA" fill-opacity="0.5" />
  <rect x="9" y="7.5" width="4" height="0.5" rx="0.1" ry="0.1" fill="#0BC5EA" fill-opacity="0.5" />
  <rect x="9" y="9.5" width="4" height="0.5" rx="0.1" ry="0.1" fill="#0BC5EA" fill-opacity="0.5" />
  <rect x="9" y="11.5" width="4" height="0.5" rx="0.1" ry="0.1" fill="#0BC5EA" fill-opacity="0.5" />
  
  <!-- Tech patterns -->
  <line x1="3" y1="4.5" x2="7" y2="4.5" stroke="#4299E1" stroke-width="0.1" stroke-dasharray="0.4,0.2" />
  <line x1="3" y1="6.5" x2="7" y2="6.5" stroke="#4299E1" stroke-width="0.1" stroke-dasharray="0.4,0.2" />
  <line x1="3" y1="8.5" x2="7" y2="8.5" stroke="#4299E1" stroke-width="0.1" stroke-dasharray="0.4,0.2" />
  <line x1="3" y1="10.5" x2="7" y2="10.5" stroke="#4299E1" stroke-width="0.1" stroke-dasharray="0.4,0.2" />
  <line x1="3" y1="12.5" x2="7" y2="12.5" stroke="#4299E1" stroke-width="0.1" stroke-dasharray="0.4,0.2" />
  
  <line x1="9" y1="4.5" x2="13" y2="4.5" stroke="#4299E1" stroke-width="0.1" stroke-dasharray="0.4,0.2" />
  <line x1="9" y1="6.5" x2="13" y2="6.5" stroke="#4299E1" stroke-width="0.1" stroke-dasharray="0.4,0.2" />
  <line x1="9" y1="8.5" x2="13" y2="8.5" stroke="#4299E1" stroke-width="0.1" stroke-dasharray="0.4,0.2" />
  <line x1="9" y1="10.5" x2="13" y2="10.5" stroke="#4299E1" stroke-width="0.1" stroke-dasharray="0.4,0.2" />
  <line x1="9" y1="12.5" x2="13" y2="12.5" stroke="#4299E1" stroke-width="0.1" stroke-dasharray="0.4,0.2" />
  
  <!-- Security indicator light -->
  <circle cx="12.5" cy="2.5" r="0.4" fill="#0BC5EA" />
  
  <!-- Secure lock pattern -->
  <path d="M11.5,7.5 L12,7.7 L12.5,7.5 L12.5,8.5 L12,8.3 L11.5,8.5 Z" fill="#0BC5EA" fill-opacity="0.7" />
</svg>