<?xml version="1.0" encoding="UTF-8" standalone="no"?>
<svg width="16" height="16" viewBox="0 0 16 16" xmlns="http://www.w3.org/2000/svg">
  <rect width="16" height="16" fill="none" />
  
  <!-- Base machine block -->
  <rect x="0" y="0" width="16" height="16" fill="#1a2536" />
  
  <!-- Machine edge highlights -->
  <rect x="0" y="0" width="16" height="1" fill="#2a3546" />
  <rect x="0" y="0" width="1" height="16" fill="#2a3546" />
  <rect x="0" y="15" width="16" height="1" fill="#101520" />
  <rect x="15" y="0" width="1" height="16" fill="#101520" />
  
  <!-- Machine frame details -->
  <rect x="2" y="2" width="12" height="12" fill="#121a26" stroke="#1e2c3c" stroke-width="0.5" />
  
  <!-- Display panel -->
  <rect x="3" y="3" width="10" height="4" fill="#0a111c" stroke="#0af" stroke-width="0.2" />
  
  <!-- Generator indicators -->
  <circle cx="5" cy="5" r="1" fill="#0af" />
  <circle cx="8" cy="5" r="1" fill="#0af" />
  <circle cx="11" cy="5" r="1" fill="#0af" />
  
  <!-- Glow effects for indicators -->
  <circle cx="5" cy="5" r="1.3" fill="none" stroke="#0af" stroke-width="0.2" opacity="0.6" />
  <circle cx="8" cy="5" r="1.3" fill="none" stroke="#0af" stroke-width="0.2" opacity="0.6" />
  <circle cx="11" cy="5" r="1.3" fill="none" stroke="#0af" stroke-width="0.2" opacity="0.6" />
  
  <!-- Power connectors -->
  <rect x="4" y="9" width="8" height="3" fill="#1e2c3c" />
  
  <!-- Power outlets -->
  <rect x="5" y="10" width="2" height="1" fill="#0f1c2c" stroke="#0af" stroke-width="0.2" />
  <rect x="9" y="10" width="2" height="1" fill="#0f1c2c" stroke="#0af" stroke-width="0.2" />
  
  <!-- Circuit pattern -->
  <path d="M5,8 L11,8" stroke="#0af" stroke-width="0.3" />
  <path d="M6,10.5 L6,8" stroke="#0af" stroke-width="0.3" />
  <path d="M10,10.5 L10,8" stroke="#0af" stroke-width="0.3" />
</svg>