<?xml version="1.0" encoding="UTF-8" standalone="no"?>
<svg width="16" height="16" viewBox="0 0 16 16" xmlns="http://www.w3.org/2000/svg">
  <!-- Energy Emitter Block - Enhanced Version -->
  
  <!-- Background Glow Effects -->
  <defs>
    <filter id="glow">
      <feGaussianBlur stdDeviation="0.5" result="blur"/>
      <feComposite in="SourceGraphic" in2="blur" operator="over"/>
    </filter>
    
    <filter id="emissionBeam">
      <feGaussianBlur stdDeviation="0.8" result="blur"/>
      <feComposite in="SourceGraphic" in2="blur" operator="over"/>
    </filter>
    
    <linearGradient id="lensGradient" x1="0%" y1="0%" x2="100%" y2="100%">
      <stop offset="0%" stop-color="#4ca5ff" />
      <stop offset="50%" stop-color="#a0d0ff" />
      <stop offset="100%" stop-color="#4ca5ff" />
    </linearGradient>
    
    <linearGradient id="emitterHousingGradient" x1="0%" y1="0%" x2="100%" y2="100%">
      <stop offset="0%" stop-color="#0a3578" />
      <stop offset="50%" stop-color="#0f4c9e" />
      <stop offset="100%" stop-color="#0a3578" />
    </linearGradient>
    
    <pattern id="techCircuitry" patternUnits="userSpaceOnUse" width="4" height="4">
      <rect width="4" height="4" fill="#0c1a3a"/>
      <path d="M0,2 L4,2" stroke="#1d3b7a" stroke-width="0.2"/>
      <path d="M2,0 L2,4" stroke="#1d3b7a" stroke-width="0.2"/>
    </pattern>
  </defs>

  <!-- Base Block -->
  <rect x="0" y="0" width="16" height="16" fill="#070b18" stroke="#112452" stroke-width="0.5"/>
  
  <!-- Main Design with Tech Pattern -->
  <rect x="1" y="1" width="14" height="14" fill="url(#techCircuitry)" stroke="#1d3b7a" stroke-width="0.3"/>
  
  <!-- Emitter Housing -->
  <rect x="2.5" y="2.5" width="11" height="11" rx="1.5" ry="1.5" fill="#091225" stroke="#1d3b7a" stroke-width="0.3"/>
  
  <!-- Emitter Frame -->
  <rect x="3.5" y="3.5" width="9" height="9" rx="1" ry="1" fill="url(#emitterHousingGradient)" stroke="#2377de" stroke-width="0.3"/>
  
  <!-- Emitter Dish Mount -->
  <circle cx="8" cy="8" r="4" fill="#0c1a3a" stroke="#2377de" stroke-width="0.4"/>
  
  <!-- Focusing Array - Concentric Rings -->
  <circle cx="8" cy="8" r="3.5" fill="none" stroke="#2377de" stroke-width="0.2" stroke-dasharray="0.5,0.5"/>
  <circle cx="8" cy="8" r="3" fill="none" stroke="#2377de" stroke-width="0.2" stroke-dasharray="0.5,0.5"/>
  
  <!-- Focus Elements -->
  <ellipse cx="8" cy="8" rx="3" ry="1.5" fill="#0f4c9e" stroke="#2377de" stroke-width="0.2" opacity="0.9"/>
  
  <!-- Emitter Lens -->
  <circle cx="8" cy="8" r="2" fill="url(#lensGradient)" filter="url(#glow)" opacity="0.9">
    <animate attributeName="opacity" values="0.7;0.9;0.7" dur="3s" repeatCount="indefinite" />
  </circle>
  
  <!-- Lens Core -->
  <circle cx="8" cy="8" r="1" fill="#a0d0ff" opacity="0.9">
    <animate attributeName="r" values="1;1.2;1" dur="2s" repeatCount="indefinite" />
  </circle>
  
  <!-- Emission Ray Beams - Directional With Animation -->
  <!-- Top Beam -->
  <path d="M8,6 L9,2 M8,6 L7,2" stroke="#4ca5ff" stroke-width="0.4" opacity="0.8" filter="url(#emissionBeam)">
    <animate attributeName="opacity" values="0.8;0.5;0.8" dur="1.5s" repeatCount="indefinite" />
  </path>
  <!-- Bottom Beam -->
  <path d="M8,10 L9,14 M8,10 L7,14" stroke="#4ca5ff" stroke-width="0.4" opacity="0.8" filter="url(#emissionBeam)">
    <animate attributeName="opacity" values="0.5;0.8;0.5" dur="1.5s" repeatCount="indefinite" />
  </path>
  <!-- Left Beam -->
  <path d="M6,8 L2,9 M6,8 L2,7" stroke="#4ca5ff" stroke-width="0.4" opacity="0.8" filter="url(#emissionBeam)">
    <animate attributeName="opacity" values="0.8;0.5;0.8" dur="1.7s" repeatCount="indefinite" />
  </path>
  <!-- Right Beam -->
  <path d="M10,8 L14,9 M10,8 L14,7" stroke="#4ca5ff" stroke-width="0.4" opacity="0.8" filter="url(#emissionBeam)">
    <animate attributeName="opacity" values="0.5;0.8;0.5" dur="1.7s" repeatCount="indefinite" />
  </path>
  
  <!-- Control Panels -->
  <rect x="3" y="3" width="1.5" height="1.5" rx="0.2" ry="0.2" fill="#070b18" stroke="#2377de" stroke-width="0.2"/>
  <rect x="11.5" y="3" width="1.5" height="1.5" rx="0.2" ry="0.2" fill="#070b18" stroke="#2377de" stroke-width="0.2"/>
  <rect x="3" y="11.5" width="1.5" height="1.5" rx="0.2" ry="0.2" fill="#070b18" stroke="#2377de" stroke-width="0.2"/>
  <rect x="11.5" y="11.5" width="1.5" height="1.5" rx="0.2" ry="0.2" fill="#070b18" stroke="#2377de" stroke-width="0.2"/>
  
  <!-- Control Panel Details -->
  <line x1="3.3" y1="3.3" x2="4.2" y2="3.3" stroke="#2377de" stroke-width="0.1"/>
  <line x1="3.3" y1="3.6" x2="4.2" y2="3.6" stroke="#2377de" stroke-width="0.1"/>
  <line x1="3.3" y1="3.9" x2="4.2" y2="3.9" stroke="#2377de" stroke-width="0.1"/>
  <line x1="3.3" y1="4.2" x2="4.2" y2="4.2" stroke="#2377de" stroke-width="0.1"/>
  
  <line x1="11.8" y1="3.3" x2="12.7" y2="3.3" stroke="#2377de" stroke-width="0.1"/>
  <line x1="11.8" y1="3.6" x2="12.7" y2="3.6" stroke="#2377de" stroke-width="0.1"/>
  <line x1="11.8" y1="3.9" x2="12.7" y2="3.9" stroke="#2377de" stroke-width="0.1"/>
  <line x1="11.8" y1="4.2" x2="12.7" y2="4.2" stroke="#2377de" stroke-width="0.1"/>
  
  <line x1="3.3" y1="11.8" x2="4.2" y2="11.8" stroke="#2377de" stroke-width="0.1"/>
  <line x1="3.3" y1="12.1" x2="4.2" y2="12.1" stroke="#2377de" stroke-width="0.1"/>
  <line x1="3.3" y1="12.4" x2="4.2" y2="12.4" stroke="#2377de" stroke-width="0.1"/>
  <line x1="3.3" y1="12.7" x2="4.2" y2="12.7" stroke="#2377de" stroke-width="0.1"/>
  
  <line x1="11.8" y1="11.8" x2="12.7" y2="11.8" stroke="#2377de" stroke-width="0.1"/>
  <line x1="11.8" y1="12.1" x2="12.7" y2="12.1" stroke="#2377de" stroke-width="0.1"/>
  <line x1="11.8" y1="12.4" x2="12.7" y2="12.4" stroke="#2377de" stroke-width="0.1"/>
  <line x1="11.8" y1="12.7" x2="12.7" y2="12.7" stroke="#2377de" stroke-width="0.1"/>
  
  <!-- Energy Status Indicators -->
  <circle cx="3.75" cy="3.75" r="0.25" fill="#7bc5ff" opacity="0.9">
    <animate attributeName="opacity" values="0.9;0.5;0.9" dur="1.2s" repeatCount="indefinite" />
  </circle>
  <circle cx="12.25" cy="3.75" r="0.25" fill="#7bc5ff" opacity="0.9">
    <animate attributeName="opacity" values="0.5;0.9;0.5" dur="1.5s" repeatCount="indefinite" />
  </circle>
  <circle cx="3.75" cy="12.25" r="0.25" fill="#7bc5ff" opacity="0.9">
    <animate attributeName="opacity" values="0.9;0.5;0.9" dur="1.8s" repeatCount="indefinite" />
  </circle>
  <circle cx="12.25" cy="12.25" r="0.25" fill="#7bc5ff" opacity="0.9">
    <animate attributeName="opacity" values="0.5;0.9;0.5" dur="2.1s" repeatCount="indefinite" />
  </circle>
  
  <!-- Small Energy Emission Points -->
  <circle cx="6.5" cy="6.5" r="0.15" fill="#a0d0ff" opacity="0.8"/>
  <circle cx="9.5" cy="6.5" r="0.15" fill="#a0d0ff" opacity="0.8"/>
  <circle cx="6.5" cy="9.5" r="0.15" fill="#a0d0ff" opacity="0.8"/>
  <circle cx="9.5" cy="9.5" r="0.15" fill="#a0d0ff" opacity="0.8"/>
</svg>