<?xml version="1.0" encoding="UTF-8" standalone="no"?>
<svg width="16" height="16" viewBox="0 0 16 16" fill="none" xmlns="http://www.w3.org/2000/svg">
  <!-- Dark blue base -->
  <rect width="16" height="16" fill="#1a2b47"/>
  
  <!-- Metallic frame -->
  <rect x="0" y="0" width="16" height="1" fill="#6a7484"/>
  <rect x="0" y="15" width="16" height="1" fill="#6a7484"/>
  <rect x="0" y="0" width="1" height="16" fill="#6a7484"/>
  <rect x="15" y="0" width="1" height="16" fill="#6a7484"/>
  
  <!-- Tech pattern -->
  <line x1="4" y1="4" x2="12" y2="4" stroke="#264373" stroke-width="1"/>
  <line x1="4" y1="8" x2="12" y2="8" stroke="#264373" stroke-width="1"/>
  <line x1="4" y1="12" x2="12" y2="12" stroke="#264373" stroke-width="1"/>
  <line x1="4" y1="4" x2="4" y2="12" stroke="#264373" stroke-width="1"/>
  <line x1="8" y1="4" x2="8" y2="12" stroke="#264373" stroke-width="1"/>
  <line x1="12" y1="4" x2="12" y2="12" stroke="#264373" stroke-width="1"/>
  
  <!-- Utility elements -->
  <rect x="2" y="2" width="2" height="2" fill="#0d1a33" stroke="#05d9e8" stroke-width="0.5"/>
  <rect x="12" y="2" width="2" height="2" fill="#0d1a33" stroke="#05d9e8" stroke-width="0.5"/>
  <rect x="2" y="12" width="2" height="2" fill="#0d1a33" stroke="#05d9e8" stroke-width="0.5"/>
  <rect x="12" y="12" width="2" height="2" fill="#0d1a33" stroke="#05d9e8" stroke-width="0.5"/>
  
  <!-- Center utility symbol -->
  <circle cx="8" cy="8" r="2" fill="#0d1a33" stroke="#05d9e8" stroke-width="0.5"/>
  <circle cx="8" cy="8" r="1" fill="#05d9e8" opacity="0.7"/>
</svg>