<?xml version="1.0" encoding="UTF-8" standalone="no"?>
<svg width="16" height="16" viewBox="0 0 16 16" xmlns="http://www.w3.org/2000/svg">
  <!-- Energy Crystal Item -->
  
  <!-- Background Glow Effect -->
  <filter id="glow">
    <feGaussianBlur stdDeviation="0.5" result="blur"/>
    <feComposite in="SourceGraphic" in2="blur" operator="over"/>
  </filter>
  
  <!-- Crystal Shape -->
  <polygon points="8,1 11,4 11,12 8,15 5,12 5,4" fill="#0f4c9e" stroke="#2377de" stroke-width="0.3" filter="url(#glow)"/>
  
  <!-- Internal Structure -->
  <polygon points="8,3 10,5 10,11 8,13 6,11 6,5" fill="#112452" stroke="#4ca5ff" stroke-width="0.2"/>
  
  <!-- Energy Core -->
  <circle cx="8" cy="8" r="2" fill="#7bc5ff" opacity="0.8" filter="url(#glow)"/>
  
  <!-- Geometric Facets -->
  <line x1="8" y1="3" x2="8" y2="13" stroke="#4ca5ff" stroke-width="0.3"/>
  <line x1="6" y1="8" x2="10" y2="8" stroke="#4ca5ff" stroke-width="0.3"/>
  
  <!-- Highlights -->
  <circle cx="8" cy="8" r="0.7" fill="#ffffff" opacity="0.9"/>
  <circle cx="8" cy="8" r="0.3" fill="#4ca5ff"/>
  
  <!-- Corner Facet Highlights -->
  <circle cx="8" cy="3" r="0.3" fill="#4ca5ff" opacity="0.7"/>
  <circle cx="10" cy="5" r="0.3" fill="#4ca5ff" opacity="0.7"/>
  <circle cx="10" cy="11" r="0.3" fill="#4ca5ff" opacity="0.7"/>
  <circle cx="8" cy="13" r="0.3" fill="#4ca5ff" opacity="0.7"/>
  <circle cx="6" cy="11" r="0.3" fill="#4ca5ff" opacity="0.7"/>
  <circle cx="6" cy="5" r="0.3" fill="#4ca5ff" opacity="0.7"/>
  
  <!-- Energy Pulse Animation (Simulated as static elements) -->
  <circle cx="8" cy="8" r="3" fill="none" stroke="#4ca5ff" stroke-width="0.2" opacity="0.5"/>
  <circle cx="8" cy="8" r="4" fill="none" stroke="#4ca5ff" stroke-width="0.1" opacity="0.3"/>
</svg>