<?xml version="1.0" encoding="UTF-8" standalone="no"?>
<svg xmlns="http://www.w3.org/2000/svg" width="16" height="16" viewBox="0 0 16 16">
  <!-- Genetic Stabilizer Item - Futuristic Blue Theme -->
  
  <!-- Background Effects -->
  <defs>
    <filter id="glow">
      <feGaussianBlur stdDeviation="0.5" result="blur"/>
      <feComposite in="SourceGraphic" in2="blur" operator="over"/>
    </filter>
    
    <filter id="coreGlow">
      <feGaussianBlur stdDeviation="0.8" result="blur"/>
      <feComposite in="SourceGraphic" in2="blur" operator="over"/>
    </filter>
    
    <linearGradient id="deviceGradient" x1="0%" y1="0%" x2="100%" y2="100%">
      <stop offset="0%" stop-color="#0a3578" />
      <stop offset="50%" stop-color="#0f4c9e" />
      <stop offset="100%" stop-color="#0a3578" />
    </linearGradient>
    
    <linearGradient id="stabilizingGradient" x1="0%" y1="0%" x2="100%" y2="100%">
      <stop offset="0%" stop-color="#4ca5ff" />
      <stop offset="50%" stop-color="#7bc5ff" />
      <stop offset="100%" stop-color="#4ca5ff" />
    </linearGradient>
    
    <pattern id="techPattern" patternUnits="userSpaceOnUse" width="3" height="3">
      <rect width="3" height="3" fill="#091225"/>
      <path d="M0,1.5 L3,1.5" stroke="#112452" stroke-width="0.1"/>
      <path d="M1.5,0 L1.5,3" stroke="#112452" stroke-width="0.1"/>
    </pattern>
  </defs>

  <!-- Base Device Shape - Hexagonal -->
  <polygon points="8,2 11.5,4 11.5,12 8,14 4.5,12 4.5,4" fill="#070b18" stroke="#112452" stroke-width="0.5"/>
  
  <!-- Inner Device Housing -->
  <polygon points="8,3 11,4.5 11,11.5 8,13 5,11.5 5,4.5" fill="url(#deviceGradient)" stroke="#1d3b7a" stroke-width="0.3"/>
  
  <!-- Technical Pattern Layer -->
  <polygon points="8,4 10,5 10,11 8,12 6,11 6,5" fill="url(#techPattern)" stroke="#1d3b7a" stroke-width="0.2"/>
  
  <!-- Stabilization Core -->
  <circle cx="8" cy="8" r="3" fill="#0c1a3a" stroke="#2377de" stroke-width="0.3"/>
  <circle cx="8" cy="8" r="2.5" fill="#091225" stroke="#2377de" stroke-width="0.2"/>
  
  <!-- Stable DNA Helix - Clean, Organized, Non-mutated -->
  <path d="M6.5,6 C7,6.5 9,5.5 9.5,6" 
        stroke="#4ca5ff" stroke-width="0.3" opacity="0.8" fill="none">
    <animate attributeName="opacity" values="0.7;0.9;0.7" dur="4s" repeatCount="indefinite" />
  </path>
  <path d="M6.5,7 C7,7.5 9,6.5 9.5,7" 
        stroke="#4ca5ff" stroke-width="0.3" opacity="0.8" fill="none">
    <animate attributeName="opacity" values="0.8;0.6;0.8" dur="4.2s" repeatCount="indefinite" />
  </path>
  <path d="M6.5,8 C7,8.5 9,7.5 9.5,8" 
        stroke="#4ca5ff" stroke-width="0.3" opacity="0.8" fill="none">
    <animate attributeName="opacity" values="0.7;0.9;0.7" dur="4.4s" repeatCount="indefinite" />
  </path>
  <path d="M6.5,9 C7,9.5 9,8.5 9.5,9" 
        stroke="#4ca5ff" stroke-width="0.3" opacity="0.8" fill="none">
    <animate attributeName="opacity" values="0.8;0.6;0.8" dur="4.6s" repeatCount="indefinite" />
  </path>
  <path d="M6.5,10 C7,10.5 9,9.5 9.5,10" 
        stroke="#4ca5ff" stroke-width="0.3" opacity="0.8" fill="none">
    <animate attributeName="opacity" values="0.7;0.9;0.7" dur="4.8s" repeatCount="indefinite" />
  </path>
  
  <!-- DNA Connecting Nodes -->
  <circle cx="6.5" cy="6" r="0.2" fill="#a0d0ff" opacity="0.9"/>
  <circle cx="9.5" cy="6" r="0.2" fill="#a0d0ff" opacity="0.9"/>
  <circle cx="6.5" cy="7" r="0.2" fill="#a0d0ff" opacity="0.9"/>
  <circle cx="9.5" cy="7" r="0.2" fill="#a0d0ff" opacity="0.9"/>
  <circle cx="6.5" cy="8" r="0.2" fill="#a0d0ff" opacity="0.9"/>
  <circle cx="9.5" cy="8" r="0.2" fill="#a0d0ff" opacity="0.9"/>
  <circle cx="6.5" cy="9" r="0.2" fill="#a0d0ff" opacity="0.9"/>
  <circle cx="9.5" cy="9" r="0.2" fill="#a0d0ff" opacity="0.9"/>
  <circle cx="6.5" cy="10" r="0.2" fill="#a0d0ff" opacity="0.9"/>
  <circle cx="9.5" cy="10" r="0.2" fill="#a0d0ff" opacity="0.9"/>
  
  <!-- Stabilization Field -->
  <circle cx="8" cy="8" r="2" fill="url(#stabilizingGradient)" filter="url(#coreGlow)" opacity="0.5">
    <animate attributeName="opacity" values="0.3;0.6;0.3" dur="3s" repeatCount="indefinite" />
  </circle>
  <circle cx="8" cy="8" r="1" fill="#a0d0ff" opacity="0.7">
    <animate attributeName="r" values="0.8;1.2;0.8" dur="2.5s" repeatCount="indefinite" />
  </circle>
  
  <!-- Stabilization Field Points -->
  <circle cx="11" cy="4.5" r="0.3" fill="#4ca5ff" opacity="0.8">
    <animate attributeName="opacity" values="0.6;0.9;0.6" dur="1.5s" repeatCount="indefinite" />
  </circle>
  <circle cx="11" cy="11.5" r="0.3" fill="#4ca5ff" opacity="0.8">
    <animate attributeName="opacity" values="0.9;0.6;0.9" dur="1.7s" repeatCount="indefinite" />
  </circle>
  <circle cx="5" cy="11.5" r="0.3" fill="#4ca5ff" opacity="0.8">
    <animate attributeName="opacity" values="0.6;0.9;0.6" dur="1.9s" repeatCount="indefinite" />
  </circle>
  <circle cx="5" cy="4.5" r="0.3" fill="#4ca5ff" opacity="0.8">
    <animate attributeName="opacity" values="0.9;0.6;0.9" dur="2.1s" repeatCount="indefinite" />
  </circle>
  
  <!-- Stabilization Field Connectors -->
  <line x1="8" y1="8" x2="11" y2="4.5" stroke="#4ca5ff" stroke-width="0.2" opacity="0.4"/>
  <line x1="8" y1="8" x2="11" y2="11.5" stroke="#4ca5ff" stroke-width="0.2" opacity="0.4"/>
  <line x1="8" y1="8" x2="5" y2="11.5" stroke="#4ca5ff" stroke-width="0.2" opacity="0.4"/>
  <line x1="8" y1="8" x2="5" y2="4.5" stroke="#4ca5ff" stroke-width="0.2" opacity="0.4"/>
  
  <!-- Edge Detail Points -->
  <circle cx="8" cy="3" r="0.25" fill="#4ca5ff" opacity="0.8"/>
  <circle cx="8" cy="13" r="0.25" fill="#4ca5ff" opacity="0.8"/>
</svg>