<?xml version="1.0" encoding="UTF-8" standalone="no"?>
<svg xmlns="http://www.w3.org/2000/svg" width="16" height="16" viewBox="0 0 16 16">
  <!-- Growth Serum Item - Futuristic Blue Theme -->
  
  <!-- Background Effects -->
  <defs>
    <filter id="glow">
      <feGaussianBlur stdDeviation="0.5" result="blur"/>
      <feComposite in="SourceGraphic" in2="blur" operator="over"/>
    </filter>
    
    <filter id="serumGlow">
      <feGaussianBlur stdDeviation="0.8" result="blur"/>
      <feComposite in="SourceGraphic" in2="blur" operator="over"/>
    </filter>
    
    <linearGradient id="glassGradient" x1="0%" y1="0%" x2="100%" y2="100%">
      <stop offset="0%" stop-color="#0c1a3a" />
      <stop offset="50%" stop-color="#091225" />
      <stop offset="100%" stop-color="#0c1a3a" />
    </linearGradient>
    
    <linearGradient id="serumGradient" x1="0%" y1="0%" x2="0%" y2="100%">
      <stop offset="0%" stop-color="#4ca5ff" stop-opacity="0.8" />
      <stop offset="50%" stop-color="#7bc5ff" stop-opacity="0.7" />
      <stop offset="100%" stop-color="#0f4c9e" stop-opacity="0.9" />
    </linearGradient>
    
    <radialGradient id="bubbleGradient" cx="50%" cy="50%" r="50%" fx="50%" fy="50%">
      <stop offset="0%" stop-color="#a0d0ff" stop-opacity="0.9" />
      <stop offset="100%" stop-color="#4ca5ff" stop-opacity="0.5" />
    </radialGradient>
  </defs>

  <!-- Glass Vial -->
  <path d="M6,3 L6,12 C6,13.1 6.9,14 8,14 C9.1,14 10,13.1 10,12 L10,3 Z" fill="url(#glassGradient)" stroke="#112452" stroke-width="0.5"/>
  
  <!-- Serum Fluid -->
  <path d="M6.5,4 L6.5,12 C6.5,12.8 7.2,13.5 8,13.5 C8.8,13.5 9.5,12.8 9.5,12 L9.5,4 Z" fill="url(#serumGradient)" filter="url(#serumGlow)">
    <animate attributeName="opacity" values="0.8;1;0.8" dur="3s" repeatCount="indefinite" />
  </path>
  
  <!-- Vial Top Cap -->
  <rect x="6" y="2" width="4" height="1" rx="0.5" ry="0.5" fill="#0f4c9e" stroke="#2377de" stroke-width="0.3"/>
  <rect x="7" y="1" width="2" height="1" rx="0.3" ry="0.3" fill="#091225" stroke="#2377de" stroke-width="0.2"/>
  
  <!-- Glowing Growth Particles -->
  <circle cx="8" cy="5" r="0.5" fill="url(#bubbleGradient)" filter="url(#glow)">
    <animate attributeName="cy" values="12;5;12" dur="7s" repeatCount="indefinite" />
    <animate attributeName="opacity" values="0.8;1;0.8" dur="3s" repeatCount="indefinite" />
  </circle>
  <circle cx="7.3" cy="7.5" r="0.3" fill="url(#bubbleGradient)" filter="url(#glow)">
    <animate attributeName="cy" values="12;7.5;12" dur="8s" repeatCount="indefinite" />
    <animate attributeName="opacity" values="1;0.7;1" dur="3.5s" repeatCount="indefinite" />
  </circle>
  <circle cx="8.7" cy="10" r="0.4" fill="url(#bubbleGradient)" filter="url(#glow)">
    <animate attributeName="cy" values="12;9;12" dur="6s" repeatCount="indefinite" />
    <animate attributeName="opacity" values="0.7;1;0.7" dur="4s" repeatCount="indefinite" />
  </circle>
  
  <!-- DNA-like Structure in Serum -->
  <path d="M7,6.5 C7.5,7 8.5,6 9,6.5" 
        stroke="#a0d0ff" stroke-width="0.3" opacity="0.8" fill="none">
    <animate attributeName="opacity" values="0.6;0.9;0.6" dur="3s" repeatCount="indefinite" />
  </path>
  <path d="M7,8 C7.5,8.5 8.5,7.5 9,8" 
        stroke="#a0d0ff" stroke-width="0.3" opacity="0.8" fill="none">
    <animate attributeName="opacity" values="0.9;0.6;0.9" dur="3.3s" repeatCount="indefinite" />
  </path>
  <path d="M7,9.5 C7.5,10 8.5,9 9,9.5" 
        stroke="#a0d0ff" stroke-width="0.3" opacity="0.8" fill="none">
    <animate attributeName="opacity" values="0.6;0.9;0.6" dur="3.6s" repeatCount="indefinite" />
  </path>
  
  <!-- Vial Highlights and Details -->
  <path d="M6.3,3.5 L6.3,12 C6.3,12.1 6.3,12.2 6.31,12.3" stroke="#2377de" stroke-width="0.1" opacity="0.6"/>
  <path d="M9.7,3.5 L9.7,12 C9.7,12.1 9.7,12.2 9.69,12.3" stroke="#2377de" stroke-width="0.1" opacity="0.6"/>
  
  <!-- Measurements on Side -->
  <line x1="6.2" y1="5" x2="6.5" y2="5" stroke="#4ca5ff" stroke-width="0.1"/>
  <line x1="6.2" y1="7" x2="6.5" y2="7" stroke="#4ca5ff" stroke-width="0.1"/>
  <line x1="6.2" y1="9" x2="6.5" y2="9" stroke="#4ca5ff" stroke-width="0.1"/>
  <line x1="6.2" y1="11" x2="6.5" y2="11" stroke="#4ca5ff" stroke-width="0.1"/>
  
  <line x1="9.5" y1="5" x2="9.8" y2="5" stroke="#4ca5ff" stroke-width="0.1"/>
  <line x1="9.5" y1="7" x2="9.8" y2="7" stroke="#4ca5ff" stroke-width="0.1"/>
  <line x1="9.5" y1="9" x2="9.8" y2="9" stroke="#4ca5ff" stroke-width="0.1"/>
  <line x1="9.5" y1="11" x2="9.8" y2="11" stroke="#4ca5ff" stroke-width="0.1"/>
  
  <!-- Labels -->
  <circle cx="7" cy="1.5" r="0.2" fill="#4ca5ff" opacity="0.9">
    <animate attributeName="opacity" values="0.7;1;0.7" dur="2s" repeatCount="indefinite" />
  </circle>
  <circle cx="9" cy="1.5" r="0.2" fill="#4ca5ff" opacity="0.9">
    <animate attributeName="opacity" values="1;0.7;1" dur="2s" repeatCount="indefinite" />
  </circle>
</svg>