<?xml version="1.0" encoding="UTF-8" standalone="no"?>
<svg xmlns="http://www.w3.org/2000/svg" width="16" height="16" viewBox="0 0 16 16">
  <!-- Transparent background -->
  <rect width="16" height="16" fill="#0A192F" fill-opacity="0" />
  
  <!-- Core base -->
  <circle cx="8" cy="8" r="5.5" fill="#0B2B5B" stroke="#4299E1" stroke-width="0.5" />
  
  <!-- Inner core structure -->
  <circle cx="8" cy="8" r="4" fill="#1A365D" stroke="#4299E1" stroke-width="0.3" />
  
  <!-- Core energy center -->
  <circle cx="8" cy="8" r="2.5" fill="#0A192F" stroke="#0BC5EA" stroke-width="0.2" />
  
  <!-- Energy pulse glow -->
  <circle cx="8" cy="8" r="1.8" fill="#0BC5EA" fill-opacity="0.6" />
  <circle cx="8" cy="8" r="1" fill="#0BC5EA" fill-opacity="0.9" />
  
  <!-- Conductive pathways -->
  <path d="M8,2.5 L8,3.5 M8,12.5 L8,13.5 M2.5,8 L3.5,8 M12.5,8 L13.5,8" 
        stroke="#0BC5EA" stroke-width="0.6" />
  
  <!-- Diagonal energy paths -->
  <path d="M5.5,5.5 L4.8,4.8 M10.5,5.5 L11.2,4.8 M5.5,10.5 L4.8,11.2 M10.5,10.5 L11.2,11.2" 
        stroke="#0BC5EA" stroke-width="0.4" />
  
  <!-- Techno-circuit patterns -->
  <circle cx="8" cy="8" r="3.2" fill="none" stroke="#4299E1" stroke-width="0.1" 
          stroke-dasharray="0.3,0.3" />
  
  <!-- Decorative tech elements -->
  <path d="M6.5,6.5 L9.5,9.5 M6.5,9.5 L9.5,6.5" 
        stroke="#0BC5EA" stroke-width="0.2" stroke-opacity="0.7" />
  
  <!-- Energy stabilization rings -->
  <circle cx="8" cy="8" r="5" fill="none" stroke="#4299E1" stroke-width="0.1" 
          stroke-dasharray="0.5,0.2" />
</svg>