<?xml version="1.0" encoding="UTF-8" standalone="no"?>
<svg width="16" height="16" viewBox="0 0 16 16" fill="none" xmlns="http://www.w3.org/2000/svg">
  <!-- Dark blue base -->
  <rect width="16" height="16" fill="#1a2b47"/>
  
  <!-- Metallic border -->
  <rect x="0" y="0" width="16" height="1" fill="#6a7484"/>
  <rect x="0" y="15" width="16" height="1" fill="#6a7484"/>
  <rect x="0" y="0" width="1" height="16" fill="#6a7484"/>
  <rect x="15" y="0" width="1" height="16" fill="#6a7484"/>
  
  <!-- Inner panel -->
  <rect x="2" y="2" width="12" height="12" fill="#0d1a33"/>
  
  <!-- Tech pattern grid -->
  <line x1="2" y1="4" x2="14" y2="4" stroke="#264373" stroke-width="1"/>
  <line x1="2" y1="8" x2="14" y2="8" stroke="#264373" stroke-width="1"/>
  <line x1="2" y1="12" x2="14" y2="12" stroke="#264373" stroke-width="1"/>
  <line x1="4" y1="2" x2="4" y2="14" stroke="#264373" stroke-width="1"/>
  <line x1="8" y1="2" x2="8" y2="14" stroke="#264373" stroke-width="1"/>
  <line x1="12" y1="2" x2="12" y2="14" stroke="#264373" stroke-width="1"/>
  
  <!-- Cyan glowing elements -->
  <circle cx="8" cy="8" r="2.5" fill="#0d1a33" stroke="#05d9e8" stroke-width="0.5"/>
  <circle cx="8" cy="8" r="1.5" fill="#05d9e8" opacity="0.7"/>
  
  <!-- Construction elements -->
  <line x1="3" y1="3" x2="6" y2="6" stroke="#05d9e8" stroke-width="0.5"/>
  <line x1="3" y1="13" x2="6" y2="10" stroke="#05d9e8" stroke-width="0.5"/>
  <line x1="13" y1="3" x2="10" y2="6" stroke="#05d9e8" stroke-width="0.5"/>
  <line x1="13" y1="13" x2="10" y2="10" stroke="#05d9e8" stroke-width="0.5"/>
  
  <!-- Tech details -->
  <rect x="4" y="4" width="2" height="2" fill="#0d1a33" stroke="#05d9e8" stroke-width="0.5"/>
  <rect x="10" y="4" width="2" height="2" fill="#0d1a33" stroke="#05d9e8" stroke-width="0.5"/>
  <rect x="4" y="10" width="2" height="2" fill="#0d1a33" stroke="#05d9e8" stroke-width="0.5"/>
  <rect x="10" y="10" width="2" height="2" fill="#0d1a33" stroke="#05d9e8" stroke-width="0.5"/>
</svg>