<?xml version="1.0" encoding="UTF-8" standalone="no"?>
<svg xmlns="http://www.w3.org/2000/svg" width="16" height="16" viewBox="0 0 16 16">
  <!-- DNA Sampler Item - Futuristic Blue Theme -->
  
  <!-- Background Effects -->
  <defs>
    <filter id="glow">
      <feGaussianBlur stdDeviation="0.5" result="blur"/>
      <feComposite in="SourceGraphic" in2="blur" operator="over"/>
    </filter>
    
    <filter id="sampleGlow">
      <feGaussianBlur stdDeviation="0.8" result="blur"/>
      <feComposite in="SourceGraphic" in2="blur" operator="over"/>
    </filter>
    
    <linearGradient id="bodyGradient" x1="0%" y1="0%" x2="100%" y2="100%">
      <stop offset="0%" stop-color="#0a3578" />
      <stop offset="50%" stop-color="#0f4c9e" />
      <stop offset="100%" stop-color="#0a3578" />
    </linearGradient>
    
    <linearGradient id="sampleGradient" x1="0%" y1="0%" x2="100%" y2="100%">
      <stop offset="0%" stop-color="#4ca5ff" />
      <stop offset="50%" stop-color="#7bc5ff" />
      <stop offset="100%" stop-color="#4ca5ff" />
    </linearGradient>
    
    <pattern id="techPattern" patternUnits="userSpaceOnUse" width="2" height="2">
      <rect width="2" height="2" fill="#091225"/>
      <path d="M0,0 L2,2" stroke="#112452" stroke-width="0.1"/>
    </pattern>
  </defs>

  <!-- Main Device Body -->
  <rect x="6" y="2" width="4" height="12" rx="0.7" ry="0.7" fill="#070b18" stroke="#112452" stroke-width="0.5"/>
  <rect x="6.5" y="2.5" width="3" height="9" rx="0.5" ry="0.5" fill="url(#bodyGradient)" stroke="#1d3b7a" stroke-width="0.3"/>

  <!-- Handle Grip Section -->
  <rect x="6.5" y="11.5" width="3" height="2" rx="0.3" ry="0.3" fill="url(#techPattern)" stroke="#1d3b7a" stroke-width="0.2"/>
  
  <!-- Grip Pattern -->
  <line x1="7" y1="12" x2="9" y2="12" stroke="#1d3b7a" stroke-width="0.2"/>
  <line x1="7" y1="12.5" x2="9" y2="12.5" stroke="#1d3b7a" stroke-width="0.2"/>
  <line x1="7" y1="13" x2="9" y2="13" stroke="#1d3b7a" stroke-width="0.2"/>
  
  <!-- Collection Tube -->
  <rect x="7" y="7" width="2" height="4" rx="0.3" ry="0.3" fill="#091225" stroke="#2377de" stroke-width="0.2"/>
  
  <!-- Sample Visualization in Tube -->
  <rect x="7.25" y="8" width="1.5" height="2.5" rx="0.2" ry="0.2" fill="url(#sampleGradient)" opacity="0.5" filter="url(#sampleGlow)">
    <animate attributeName="opacity" values="0.3;0.6;0.3" dur="4s" repeatCount="indefinite" />
  </rect>
  
  <!-- DNA Pattern in Sample -->
  <path d="M7.5,8.5 C7.75,9 8.25,8 8.5,8.5" 
        stroke="#a0d0ff" stroke-width="0.2" opacity="0.8" fill="none">
    <animate attributeName="opacity" values="0.6;0.9;0.6" dur="3s" repeatCount="indefinite" />
  </path>
  <path d="M7.5,9.5 C7.75,10 8.25,9 8.5,9.5" 
        stroke="#a0d0ff" stroke-width="0.2" opacity="0.8" fill="none">
    <animate attributeName="opacity" values="0.9;0.6;0.9" dur="3.2s" repeatCount="indefinite" />
  </path>
  
  <!-- Upper Device Components -->
  <rect x="6.75" y="3" width="2.5" height="2.5" rx="0.3" ry="0.3" fill="#0c1a3a" stroke="#1d3b7a" stroke-width="0.2"/>
  <rect x="7" y="3.25" width="2" height="2" rx="0.2" ry="0.2" fill="#091225" stroke="#2377de" stroke-width="0.1"/>
  
  <!-- Display Screen with Data -->
  <rect x="7.25" y="3.5" width="1.5" height="1.5" rx="0.2" ry="0.2" fill="#0f4c9e" opacity="0.8"/>
  
  <!-- Data Visualization Lines -->
  <line x1="7.5" y1="4" x2="8.5" y2="4" stroke="#4ca5ff" stroke-width="0.1"/>
  <line x1="7.5" y1="4.3" x2="8.5" y2="4.3" stroke="#4ca5ff" stroke-width="0.1"/>
  <line x1="7.5" y1="4.6" x2="8.5" y2="4.6" stroke="#4ca5ff" stroke-width="0.1"/>
  
  <!-- Connection Section -->
  <rect x="6.75" y="5.75" width="2.5" height="1" rx="0.2" ry="0.2" fill="#0f4c9e" stroke="#2377de" stroke-width="0.1"/>
  
  <!-- Control Button -->
  <circle cx="8" cy="6.25" r="0.3" fill="#091225" stroke="#2377de" stroke-width="0.1"/>
  <circle cx="8" cy="6.25" r="0.15" fill="#4ca5ff" opacity="0.8">
    <animate attributeName="opacity" values="0.6;0.9;0.6" dur="1.5s" repeatCount="indefinite" />
  </circle>
  
  <!-- Needle/Sampling Probe -->
  <rect x="7.75" y="1" width="0.5" height="1" fill="#2377de"/>
  <path d="M7.5,1.5 L8.5,1.5 L8,1 Z" fill="#4ca5ff"/>
  
  <!-- Side Indicators -->
  <circle cx="6.5" cy="4" r="0.15" fill="#4ca5ff" opacity="0.8">
    <animate attributeName="opacity" values="0.5;0.9;0.5" dur="1.3s" repeatCount="indefinite" />
  </circle>
  <circle cx="9.5" cy="4" r="0.15" fill="#4ca5ff" opacity="0.8">
    <animate attributeName="opacity" values="0.9;0.5;0.9" dur="1.3s" repeatCount="indefinite" />
  </circle>
  
  <!-- Bottom Connection Port -->
  <rect x="7.25" y="13.5" width="1.5" height="0.5" rx="0.2" ry="0.2" fill="#091225" stroke="#2377de" stroke-width="0.1"/>
  <line x1="7.5" y1="13.75" x2="8.5" y2="13.75" stroke="#4ca5ff" stroke-width="0.1"/>
</svg>