<?xml version="1.0" encoding="UTF-8" standalone="no"?>
<svg xmlns="http://www.w3.org/2000/svg" width="16" height="16" viewBox="0 0 16 16">
  <!-- Gene Splicer Item - Futuristic Blue Theme -->
  
  <!-- Background Effects -->
  <defs>
    <filter id="glow">
      <feGaussianBlur stdDeviation="0.5" result="blur"/>
      <feComposite in="SourceGraphic" in2="blur" operator="over"/>
    </filter>
    
    <filter id="coreGlow">
      <feGaussianBlur stdDeviation="0.8" result="blur"/>
      <feComposite in="SourceGraphic" in2="blur" operator="over"/>
    </filter>
    
    <linearGradient id="deviceGradient" x1="0%" y1="0%" x2="100%" y2="100%">
      <stop offset="0%" stop-color="#0a3578" />
      <stop offset="50%" stop-color="#0f4c9e" />
      <stop offset="100%" stop-color="#0a3578" />
    </linearGradient>
    
    <linearGradient id="energyGradient" x1="0%" y1="0%" x2="100%" y2="100%">
      <stop offset="0%" stop-color="#4ca5ff" />
      <stop offset="50%" stop-color="#7bc5ff" />
      <stop offset="100%" stop-color="#4ca5ff" />
    </linearGradient>
  </defs>

  <!-- Base Device Shape -->
  <rect x="3" y="2" width="10" height="12" rx="1" ry="1" fill="#070b18" stroke="#112452" stroke-width="0.5"/>
  
  <!-- Main Device Body -->
  <rect x="3.5" y="2.5" width="9" height="8" rx="0.8" ry="0.8" fill="url(#deviceGradient)" stroke="#1d3b7a" stroke-width="0.3"/>
  
  <!-- Handle/Grip Section -->
  <rect x="5" y="10.5" width="6" height="3.5" rx="0.5" ry="0.5" fill="#0c1a3a" stroke="#1d3b7a" stroke-width="0.3"/>
  <rect x="5.5" y="11" width="5" height="2.5" rx="0.3" ry="0.3" fill="#091225" stroke="#2377de" stroke-width="0.2"/>
  
  <!-- Ribbed Grip Pattern -->
  <line x1="6" y1="11.5" x2="10" y2="11.5" stroke="#1d3b7a" stroke-width="0.2"/>
  <line x1="6" y1="12" x2="10" y2="12" stroke="#1d3b7a" stroke-width="0.2"/>
  <line x1="6" y1="12.5" x2="10" y2="12.5" stroke="#1d3b7a" stroke-width="0.2"/>
  <line x1="6" y1="13" x2="10" y2="13" stroke="#1d3b7a" stroke-width="0.2"/>
  
  <!-- Connection Point between Handle and Main Device -->
  <rect x="6" y="10" width="4" height="1" fill="#0f4c9e" stroke="#2377de" stroke-width="0.2"/>
  
  <!-- DNA Analysis Display Screen -->
  <rect x="4" y="3" width="8" height="4" rx="0.3" ry="0.3" fill="#091225" stroke="#2377de" stroke-width="0.2"/>
  
  <!-- DNA Helix Pattern on Screen -->
  <path d="M5,4 C5.5,4.5 6.5,3.5 7,4 C7.5,4.5 8.5,3.5 9,4 C9.5,4.5 10.5,3.5 11,4" 
        stroke="#4ca5ff" stroke-width="0.3" opacity="0.8" fill="none">
    <animate attributeName="opacity" values="0.6;0.9;0.6" dur="3s" repeatCount="indefinite" />
  </path>
  <path d="M5,5 C5.5,5.5 6.5,4.5 7,5 C7.5,5.5 8.5,4.5 9,5 C9.5,5.5 10.5,4.5 11,5" 
        stroke="#4ca5ff" stroke-width="0.3" opacity="0.8" fill="none">
    <animate attributeName="opacity" values="0.9;0.6;0.9" dur="3.3s" repeatCount="indefinite" />
  </path>
  <path d="M5,6 C5.5,6.5 6.5,5.5 7,6 C7.5,6.5 8.5,5.5 9,6 C9.5,6.5 10.5,5.5 11,6" 
        stroke="#4ca5ff" stroke-width="0.3" opacity="0.8" fill="none">
    <animate attributeName="opacity" values="0.6;0.9;0.6" dur="3.6s" repeatCount="indefinite" />
  </path>
  
  <!-- Gene Analysis Component -->
  <rect x="4" y="7.5" width="8" height="2" rx="0.3" ry="0.3" fill="#0c1a3a" stroke="#1d3b7a" stroke-width="0.2"/>
  <rect x="4.5" y="8" width="7" height="1" rx="0.2" ry="0.2" fill="#0f4c9e" stroke="#2377de" stroke-width="0.1"/>
  
  <!-- Insertion Point for Gene Editing -->
  <circle cx="8" cy="8.5" r="0.6" fill="#0f4c9e" stroke="#2377de" stroke-width="0.2"/>
  <circle cx="8" cy="8.5" r="0.3" fill="url(#energyGradient)" filter="url(#glow)" opacity="0.9">
    <animate attributeName="opacity" values="0.7;1;0.7" dur="2s" repeatCount="indefinite" />
  </circle>
  
  <!-- Control Buttons -->
  <circle cx="5" cy="9.5" r="0.4" fill="#0f4c9e" stroke="#2377de" stroke-width="0.2"/>
  <circle cx="5" cy="9.5" r="0.2" fill="#4ca5ff" opacity="0.8">
    <animate attributeName="opacity" values="0.6;0.9;0.6" dur="1.5s" repeatCount="indefinite" />
  </circle>
  
  <circle cx="11" cy="9.5" r="0.4" fill="#0f4c9e" stroke="#2377de" stroke-width="0.2"/>
  <circle cx="11" cy="9.5" r="0.2" fill="#4ca5ff" opacity="0.8">
    <animate attributeName="opacity" values="0.9;0.6;0.9" dur="1.8s" repeatCount="indefinite" />
  </circle>
  
  <!-- Status Indicators -->
  <circle cx="6.5" cy="9.5" r="0.25" fill="#4ca5ff" opacity="0.9">
    <animate attributeName="opacity" values="0.7;1;0.7" dur="1.2s" repeatCount="indefinite" />
  </circle>
  <circle cx="9.5" cy="9.5" r="0.25" fill="#4ca5ff" opacity="0.9">
    <animate attributeName="opacity" values="1;0.7;1" dur="1.5s" repeatCount="indefinite" />
  </circle>
  
  <!-- Gene Editing Emitter Array - Top of Tool -->
  <rect x="4.5" y="1.5" width="7" height="1" rx="0.3" ry="0.3" fill="#0f4c9e" stroke="#2377de" stroke-width="0.2"/>
  
  <!-- Emitter Points -->
  <circle cx="5.5" cy="2" r="0.3" fill="#4ca5ff" filter="url(#glow)" opacity="0.8">
    <animate attributeName="opacity" values="0.6;0.9;0.6" dur="1.3s" repeatCount="indefinite" />
  </circle>
  <circle cx="8" cy="2" r="0.3" fill="#4ca5ff" filter="url(#glow)" opacity="0.8">
    <animate attributeName="opacity" values="0.9;0.6;0.9" dur="1.6s" repeatCount="indefinite" />
  </circle>
  <circle cx="10.5" cy="2" r="0.3" fill="#4ca5ff" filter="url(#glow)" opacity="0.8">
    <animate attributeName="opacity" values="0.6;0.9;0.6" dur="1.9s" repeatCount="indefinite" />
  </circle>
  
  <!-- Energy Capacitor Indicator Lines -->
  <line x1="7" y1="9.5" x2="8" y2="9.5" stroke="#4ca5ff" stroke-width="0.1"/>
  <line x1="8" y1="9.5" x2="9" y2="9.5" stroke="#4ca5ff" stroke-width="0.1"/>
</svg>