<?xml version="1.0" encoding="UTF-8" standalone="no"?>
<svg xmlns="http://www.w3.org/2000/svg" width="16" height="16" viewBox="0 0 16 16">
  <!-- Rocket Body -->
  <path d="M 8,0 C 6.5,2 5.5,5 5.5,8 L 10.5,8 C 10.5,5 9.5,2 8,0 Z" fill="#ffffff" />
  <path d="M 5.5,8 L 5.5,13 L 10.5,13 L 10.5,8 Z" fill="#dddddd" />
  
  <!-- Rocket Details -->
  <rect x="6.5" y="9" width="3" height="0.5" fill="#555555" />
  <rect x="6.5" y="10" width="3" height="0.5" fill="#555555" />
  <rect x="6.5" y="11" width="3" height="0.5" fill="#555555" />
  
  <!-- Rocket Windows -->
  <circle cx="8" cy="5" r="1" fill="#99ffff" />
  <circle cx="7" cy="7" r="0.6" fill="#99ffff" />
  <circle cx="9" cy="7" r="0.6" fill="#99ffff" />
  
  <!-- Rocket Fins -->
  <path d="M 5.5,9 L 2.5,14 L 5.5,14 L 5.5,9 Z" fill="#55ff55" />
  <path d="M 10.5,9 L 13.5,14 L 10.5,14 L 10.5,9 Z" fill="#55ff55" />
  <path d="M 8,13 L 6,16 L 10,16 L 8,13 Z" fill="#55ff55" />
  
  <!-- Rocket Bottom -->
  <path d="M 5.5,13 L 5.5,15 L 10.5,15 L 10.5,13 Z" fill="#aaaaaa" />
  <rect x="7" y="14" width="2" height="1" fill="#55ffff" />
  <rect x="6.5" y="14" width="1" height="1.5" fill="#55ffff" />
  <rect x="8.5" y="14" width="1" height="1.5" fill="#55ffff" />
</svg>