<?xml version="1.0" encoding="UTF-8" standalone="no"?>
<svg xmlns="http://www.w3.org/2000/svg" width="16" height="16" viewBox="0 0 16 16">
  <!-- Dark base background for all machines -->
  <rect width="16" height="16" fill="#121824" />
  
  <!-- Standard grid pattern that all machines share -->
  <path d="M0,0 L16,0 L16,16 L0,16 Z" fill="#121824" />
  <path d="M0,4 L16,4 M0,8 L16,8 M0,12 L16,12 M4,0 L4,16 M8,0 L8,16 M12,0 L12,16" stroke="#1c2538" stroke-width="0.5" />
  
  <!-- Base frame with standard border -->
  <rect x="0.5" y="0.5" width="15" height="15" fill="none" stroke="#2c4060" stroke-width="0.5" />
  <rect x="1" y="1" width="14" height="14" fill="none" stroke="#1c2538" stroke-width="0.5" />
  
  <!-- Corners reinforcement -->
  <rect x="1" y="1" width="2" height="2" fill="#1e2c3c" />
  <rect x="13" y="1" width="2" height="2" fill="#1e2c3c" />
  <rect x="1" y="13" width="2" height="2" fill="#1e2c3c" />
  <rect x="13" y="13" width="2" height="2" fill="#1e2c3c" />
  
  <!-- Inner panel with recessed area for specialized machine components -->
  <rect x="3" y="3" width="10" height="10" fill="#0a1220" />
  <rect x="3.5" y="3.5" width="9" height="9" fill="#101c2c" />
  
  <!-- Small indicator lights at corners -->
  <circle cx="2" cy="2" r="0.3" fill="#07c8f9" opacity="0.8" />
  <circle cx="14" cy="2" r="0.3" fill="#07c8f9" opacity="0.8" />
  <circle cx="2" cy="14" r="0.3" fill="#07c8f9" opacity="0.8" />
  <circle cx="14" cy="14" r="0.3" fill="#07c8f9" opacity="0.8" />
  
  <!-- Standard connection ports that can be used by different machines -->
  <rect x="7" y="2" width="2" height="0.5" fill="#152035" />
  <rect x="7" y="13.5" width="2" height="0.5" fill="#152035" />
  <rect x="2" y="7" width="0.5" height="2" fill="#152035" />
  <rect x="13.5" y="7" width="0.5" height="2" fill="#152035" />
  
  <!-- Standard power indicator -->
  <rect x="7.25" y="2.25" width="1.5" height="0.25" fill="#07c8f9" opacity="0.7" />
  
  <!-- Standard status display area -->
  <rect x="4" y="4" width="8" height="8" fill="#0a1525" opacity="0.5" />
  
  <!-- Central logo/emblem area -->
  <circle cx="8" cy="8" r="2.5" fill="#0f1c2c" />
  <circle cx="8" cy="8" r="2" fill="#081525" />
  
  <!-- Subtle circuit-like pattern -->
  <path d="M5.5,8 L7,8 M9,8 L10.5,8 M8,5.5 L8,7 M8,9 L8,10.5" 
        stroke="#07c8f9" stroke-width="0.3" opacity="0.7" />
  <path d="M6,6 L7,7 M9,9 L10,10 M10,6 L9,7 M6,10 L7,9" 
        stroke="#07c8f9" stroke-width="0.3" opacity="0.5" />
</svg>