<?xml version="1.0" encoding="UTF-8" standalone="no"?>
<svg width="16" height="16" viewBox="0 0 16 16" xmlns="http://www.w3.org/2000/svg">
  <rect width="16" height="16" fill="none" />
  
  <!-- Base device shape -->
  <rect x="3" y="3" width="10" height="10" rx="1" ry="1" fill="#142436" stroke="#2a3546" stroke-width="0.5" />
  
  <!-- Device inner frame -->
  <rect x="4" y="4" width="8" height="8" rx="0.5" ry="0.5" fill="#081018" stroke="#0cf" stroke-width="0.2" />
  
  <!-- Stabilizer center -->
  <circle cx="8" cy="8" r="2.5" fill="#0a1828" stroke="#0cf" stroke-width="0.2" />
  
  <!-- Energy core -->
  <circle cx="8" cy="8" r="1.5" fill="#081018" stroke="#0cf" stroke-width="0.2" stroke-dasharray="0.5,0.3" />
  <circle cx="8" cy="8" r="0.8" fill="#0cf" opacity="0.4" />
  
  <!-- Stabilizer components -->
  <rect x="4.5" y="7.5" width="1.5" height="1" rx="0.3" ry="0.3" fill="#14263a" stroke="#0cf" stroke-width="0.2" />
  <rect x="10" y="7.5" width="1.5" height="1" rx="0.3" ry="0.3" fill="#14263a" stroke="#0cf" stroke-width="0.2" />
  <rect x="7.5" y="4.5" width="1" height="1.5" rx="0.3" ry="0.3" fill="#14263a" stroke="#0cf" stroke-width="0.2" />
  <rect x="7.5" y="10" width="1" height="1.5" rx="0.3" ry="0.3" fill="#14263a" stroke="#0cf" stroke-width="0.2" />
  
  <!-- Stabilization beams -->
  <path d="M8,5.5 L8,6.5" stroke="#0cf" stroke-width="0.3" />
  <path d="M8,9.5 L8,10.5" stroke="#0cf" stroke-width="0.3" />
  <path d="M5.5,8 L6.5,8" stroke="#0cf" stroke-width="0.3" />
  <path d="M9.5,8 L10.5,8" stroke="#0cf" stroke-width="0.3" />
  
  <!-- Corner indicators -->
  <circle cx="5" cy="5" r="0.4" fill="#14263a" stroke="#0cf" stroke-width="0.2" />
  <circle cx="11" cy="5" r="0.4" fill="#14263a" stroke="#0cf" stroke-width="0.2" />
  <circle cx="5" cy="11" r="0.4" fill="#14263a" stroke="#0cf" stroke-width="0.2" />
  <circle cx="11" cy="11" r="0.4" fill="#14263a" stroke="#0cf" stroke-width="0.2" />
</svg>