<?xml version="1.0" encoding="UTF-8" standalone="no"?>
<svg width="16" height="16" viewBox="0 0 16 16" xmlns="http://www.w3.org/2000/svg">
  <rect width="16" height="16" fill="none" />
  
  <!-- Base lens shape -->
  <ellipse cx="8" cy="8" rx="5" ry="4" fill="#142436" stroke="#2a3546" stroke-width="0.5" />
  
  <!-- Lens frame -->
  <ellipse cx="8" cy="8" rx="4.2" ry="3.2" fill="#081018" stroke="#0cf" stroke-width="0.2" />
  
  <!-- Inner lens -->
  <ellipse cx="8" cy="8" rx="3" ry="2" fill="#0a1828" stroke="#0cf" stroke-width="0.2" />
  
  <!-- Lens center -->
  <circle cx="8" cy="8" r="1.2" fill="#081018" stroke="#0cf" stroke-width="0.2" stroke-dasharray="0.5,0.3" />
  
  <!-- Energy inside lens -->
  <circle cx="8" cy="8" r="0.6" fill="#0cf" opacity="0.5" />
  
  <!-- Lens reflection highlights -->
  <ellipse cx="7" cy="7" rx="0.7" ry="0.5" fill="#0cf" opacity="0.3" transform="rotate(-30 7 7)" />
  <ellipse cx="9" cy="9" rx="0.6" ry="0.4" fill="#0cf" opacity="0.2" transform="rotate(30 9 9)" />
  
  <!-- Energy beams -->
  <path d="M3.5,8 L5,8" stroke="#0cf" stroke-width="0.3" opacity="0.5" />
  <path d="M11,8 L12.5,8" stroke="#0cf" stroke-width="0.3" opacity="0.5" />
  <path d="M8,4.5 L8,6" stroke="#0cf" stroke-width="0.3" opacity="0.5" />
  <path d="M8,10 L8,11.5" stroke="#0cf" stroke-width="0.3" opacity="0.5" />
  
  <!-- Lens edge detail -->
  <path d="M5,6 C6,7 10,7 11,6" fill="none" stroke="#0cf" stroke-width="0.2" />
  <path d="M5,10 C6,9 10,9 11,10" fill="none" stroke="#0cf" stroke-width="0.2" />
</svg>