<?xml version="1.0" encoding="UTF-8" standalone="no"?>
<svg width="16" height="16" viewBox="0 0 16 16" xmlns="http://www.w3.org/2000/svg">
  <!-- Energy Crystal Item -->
  
  <!-- Background Glow -->
  <filter id="glow">
    <feGaussianBlur stdDeviation="0.5" result="blur"/>
    <feComposite in="SourceGraphic" in2="blur" operator="over"/>
  </filter>

  <!-- Crystal Base Shape -->
  <path d="M8 1L3 5L3 11L8 15L13 11L13 5Z" fill="#070b18" stroke="#112452" stroke-width="0.5"/>

  <!-- Internal Crystal Structure -->
  <path d="M8 3L5 6L5 10L8 13L11 10L11 6Z" fill="#0c1a3a" stroke="#1d3b7a" stroke-width="0.3"/>

  <!-- Crystal Core -->
  <path d="M8 5L6.5 6.5L6.5 9.5L8 11L9.5 9.5L9.5 6.5Z" fill="#0f4c9e" stroke="#2377de" stroke-width="0.3"/>
  
  <!-- Energy Glow in Center -->
  <circle cx="8" cy="8" r="1.2" fill="#4ca5ff" filter="url(#glow)"/>
  
  <!-- Highlights -->
  <path d="M5 6L8 3L11 6" stroke="#4ca5ff" stroke-width="0.3" fill="none"/>
  <path d="M5 10L8 13L11 10" stroke="#4ca5ff" stroke-width="0.3" fill="none"/>
  
  <!-- Energy Sparkles -->
  <circle cx="7" cy="6.5" r="0.2" fill="#7bc5ff"/>
  <circle cx="9" cy="9.5" r="0.2" fill="#7bc5ff"/>
  <circle cx="6.5" cy="8" r="0.2" fill="#7bc5ff"/>
  <circle cx="9.5" cy="7" r="0.2" fill="#7bc5ff"/>
</svg>