<?xml version="1.0" encoding="UTF-8" standalone="no"?>
<svg width="16" height="16" viewBox="0 0 16 16" xmlns="http://www.w3.org/2000/svg">
  <rect width="16" height="16" fill="none" />
  
  <!-- Base item background -->
  <path d="M2,2 L14,2 L14,14 L2,14 Z" fill="#142436" />
  
  <!-- Generator body -->
  <rect x="3" y="3" width="10" height="10" fill="#0a1828" stroke="#2a3546" stroke-width="0.5" />
  
  <!-- Advanced tech details -->
  <rect x="4" y="4" width="8" height="3" fill="#101520" stroke="#0cf" stroke-width="0.2" />
  
  <!-- Power display panel -->
  <rect x="5" y="5" width="6" height="1" fill="#081018" />
  
  <!-- Power indicators -->
  <path d="M5.5,5.5 L6.5,5.5" stroke="#0cf" stroke-width="0.5" />
  <path d="M7.5,5.5 L9.5,5.5" stroke="#0cf" stroke-width="0.5" />
  <path d="M10.5,5.5 L10.5,5.5" stroke="#0cf" stroke-width="0.5" />
  
  <!-- Advanced control panels -->
  <rect x="4" y="8" width="3" height="3" fill="#14263a" stroke="#0cf" stroke-width="0.2" />
  <rect x="9" y="8" width="3" height="3" fill="#14263a" stroke="#0cf" stroke-width="0.2" />
  
  <!-- Control details -->
  <circle cx="5.5" cy="9.5" r="0.8" fill="#081018" stroke="#0cf" stroke-width="0.2" />
  <circle cx="10.5" cy="9.5" r="0.8" fill="#081018" stroke="#0cf" stroke-width="0.2" />
  
  <!-- Glow effect for high-tech appearance -->
  <rect x="5.2" y="9.2" width="0.6" height="0.6" fill="#0cf" opacity="0.6" />
  <rect x="10.2" y="9.2" width="0.6" height="0.6" fill="#0cf" opacity="0.6" />
  
  <!-- Circuit-like patterns -->
  <path d="M5.5,8 L5.5,7 L10.5,7 L10.5,8" stroke="#0af" stroke-width="0.2" stroke-dasharray="0.3,0.1" />
</svg>