<?xml version="1.0" encoding="UTF-8" standalone="no"?>
<svg width="16" height="16" viewBox="0 0 16 16" xmlns="http://www.w3.org/2000/svg">
  <rect width="16" height="16" fill="none" />
  
  <!-- Base item background -->
  <path d="M2,2 L14,2 L14,14 L2,14 Z" fill="#142436" />
  
  <!-- Solar panel frame -->
  <rect x="3" y="3" width="10" height="10" fill="#0a1828" stroke="#2a3546" stroke-width="0.5" />
  
  <!-- Solar panel cells -->
  <rect x="4" y="4" width="8" height="6" fill="#081018" stroke="#0cf" stroke-width="0.2" />
  
  <!-- Solar panel cell grid -->
  <path d="M6,4 L6,10" stroke="#0af" stroke-width="0.2" />
  <path d="M8,4 L8,10" stroke="#0af" stroke-width="0.2" />
  <path d="M10,4 L10,10" stroke="#0af" stroke-width="0.2" />
  <path d="M4,6 L12,6" stroke="#0af" stroke-width="0.2" />
  <path d="M4,8 L12,8" stroke="#0af" stroke-width="0.2" />
  
  <!-- Solar panel base -->
  <rect x="5" y="10" width="6" height="1" fill="#14263a" stroke="#0cf" stroke-width="0.2" />
  
  <!-- Connection points -->
  <rect x="7" y="11" width="2" height="1" fill="#14263a" stroke="#0cf" stroke-width="0.2" />
  
  <!-- Energy glow on cells -->
  <rect x="4.5" y="4.5" width="1" height="1" fill="#0cf" opacity="0.3" />
  <rect x="6.5" y="6.5" width="1" height="1" fill="#0cf" opacity="0.3" />
  <rect x="8.5" y="4.5" width="1" height="1" fill="#0cf" opacity="0.3" />
  <rect x="10.5" y="8.5" width="1" height="1" fill="#0cf" opacity="0.3" />
</svg>