<?xml version="1.0" encoding="UTF-8" standalone="no"?>
<svg width="16" height="16" viewBox="0 0 16 16" xmlns="http://www.w3.org/2000/svg">
  <rect x="0" y="0" width="16" height="16" fill="#1a1a2e"/>
  
  <!-- Blue grid background -->
  <path d="M0,0 L16,0 L16,16 L0,16 Z" fill="#1a1a2e"/>
  <path d="M0,0 L16,0 L16,16 L0,16 Z" stroke="#0066cc" stroke-width="0.5" fill="none"/>
  
  <!-- Grid lines -->
  <path d="M4,0 L4,16" stroke="#0066cc" stroke-width="0.2"/>
  <path d="M8,0 L8,16" stroke="#0066cc" stroke-width="0.2"/>
  <path d="M12,0 L12,16" stroke="#0066cc" stroke-width="0.2"/>
  <path d="M0,4 L16,4" stroke="#0066cc" stroke-width="0.2"/>
  <path d="M0,8 L16,8" stroke="#0066cc" stroke-width="0.2"/>
  <path d="M0,12 L16,12" stroke="#0066cc" stroke-width="0.2"/>
  
  <!-- Table surface with holographic projection area -->
  <rect x="1" y="1" width="14" height="14" fill="#0a0a1a" rx="1" ry="1"/>
  <rect x="2" y="2" width="12" height="12" fill="#0f1530" rx="1" ry="1"/>
  
  <!-- Rocket assembly hologram -->
  <circle cx="8" cy="8" r="5" fill="#00112233" stroke="#00ccff" stroke-width="0.3"/>
  <path d="M8,3 L8,13" stroke="#00ccff" stroke-width="0.3"/>
  <path d="M5,6 L11,6" stroke="#00ccff" stroke-width="0.3"/>
  <path d="M5,10 L11,10" stroke="#00ccff" stroke-width="0.3"/>
  
  <!-- Rocket outline -->
  <path d="M8,4 L6,9 L6,12 L10,12 L10,9 L8,4" stroke="#00ccff" stroke-width="0.5" fill="#00ccff22"/>
  <path d="M7,12 L9,12" stroke="#00ccff" stroke-width="0.7"/>
  
  <!-- Control panels -->
  <rect x="2" y="2" width="3" height="3" fill="#001a33" rx="0.5" ry="0.5"/>
  <rect x="11" y="2" width="3" height="3" fill="#001a33" rx="0.5" ry="0.5"/>
  <rect x="2" y="11" width="3" height="3" fill="#001a33" rx="0.5" ry="0.5"/>
  <rect x="11" y="11" width="3" height="3" fill="#001a33" rx="0.5" ry="0.5"/>
  
  <!-- Control panel buttons and displays -->
  <circle cx="3.5" cy="3.5" r="0.7" fill="#00aaff"/>
  <circle cx="12.5" cy="3.5" r="0.7" fill="#00aaff"/>
  <circle cx="3.5" cy="12.5" r="0.7" fill="#00aaff"/>
  <circle cx="12.5" cy="12.5" r="0.7" fill="#00aaff"/>
  
  <!-- Glowing edges -->
  <rect x="1" y="1" width="14" height="14" stroke="#0088cc" stroke-width="0.3" fill="none" rx="1" ry="1"/>
  
  <!-- Tech patterns -->
  <path d="M2,5 L4,5" stroke="#00ccff" stroke-width="0.2"/>
  <path d="M12,5 L14,5" stroke="#00ccff" stroke-width="0.2"/>
  <path d="M2,11 L4,11" stroke="#00ccff" stroke-width="0.2"/>
  <path d="M12,11 L14,11" stroke="#00ccff" stroke-width="0.2"/>
  
  <!-- Holographic data flow -->
  <path d="M3.5,5 L3.5,11" stroke="#0088ff44" stroke-width="0.2" stroke-dasharray="0.5,0.5"/>
  <path d="M12.5,5 L12.5,11" stroke="#0088ff44" stroke-width="0.2" stroke-dasharray="0.5,0.5"/>
  <path d="M5,3.5 L11,3.5" stroke="#0088ff44" stroke-width="0.2" stroke-dasharray="0.5,0.5"/>
  <path d="M5,12.5 L11,12.5" stroke="#0088ff44" stroke-width="0.2" stroke-dasharray="0.5,0.5"/>
</svg>