<?xml version="1.0" encoding="UTF-8" standalone="no"?>
<svg width="16" height="16" viewBox="0 0 16 16" xmlns="http://www.w3.org/2000/svg">
  <!-- Energy Transformer Block -->
  
  <!-- Background Glow -->
  <filter id="glow">
    <feGaussianBlur stdDeviation="0.5" result="blur"/>
    <feComposite in="SourceGraphic" in2="blur" operator="over"/>
  </filter>

  <!-- Base Block -->
  <rect x="1" y="1" width="14" height="14" fill="#070b18" stroke="#112452" stroke-width="0.5"/>
  
  <!-- Main Design -->
  <rect x="2" y="2" width="12" height="12" fill="#0c1a3a" stroke="#1d3b7a" stroke-width="0.3"/>
  
  <!-- Center Core -->
  <circle cx="8" cy="8" r="3" fill="#0f4c9e" stroke="#2377de" stroke-width="0.5"/>
  
  <!-- Energy Glow in Center -->
  <circle cx="8" cy="8" r="1.8" fill="#4ca5ff" filter="url(#glow)" opacity="0.7"/>
  
  <!-- Energy Flow Patterns -->
  <path d="M8 2L13 8L8 14L3 8Z" fill="none" stroke="#2377de" stroke-width="0.5"/>
  
  <!-- Corner Connectors -->
  <rect x="2" y="2" width="2" height="2" fill="#0f4c9e" stroke="#2377de" stroke-width="0.3"/>
  <rect x="12" y="2" width="2" height="2" fill="#0f4c9e" stroke="#2377de" stroke-width="0.3"/>
  <rect x="2" y="12" width="2" height="2" fill="#0f4c9e" stroke="#2377de" stroke-width="0.3"/>
  <rect x="12" y="12" width="2" height="2" fill="#0f4c9e" stroke="#2377de" stroke-width="0.3"/>
  
  <!-- Energy Flow Indicators -->
  <line x1="4" y1="8" x2="6" y2="8" stroke="#4ca5ff" stroke-width="0.6"/>
  <line x1="10" y1="8" x2="12" y2="8" stroke="#4ca5ff" stroke-width="0.6"/>
  <line x1="8" y1="4" x2="8" y2="6" stroke="#4ca5ff" stroke-width="0.6"/>
  <line x1="8" y1="10" x2="8" y2="12" stroke="#4ca5ff" stroke-width="0.6"/>
  
  <!-- Small Energy Sparkles -->
  <circle cx="3" cy="3" r="0.4" fill="#7bc5ff"/>
  <circle cx="13" cy="3" r="0.4" fill="#7bc5ff"/>
  <circle cx="3" cy="13" r="0.4" fill="#7bc5ff"/>
  <circle cx="13" cy="13" r="0.4" fill="#7bc5ff"/>
</svg>