<?xml version="1.0" encoding="UTF-8" standalone="no"?>
<svg xmlns="http://www.w3.org/2000/svg" width="16" height="16" viewBox="0 0 16 16">
  <!-- Dark space-themed background - deeper blue for space module -->
  <rect width="16" height="16" fill="#101828" />
  
  <!-- Subtle star-like grid pattern -->
  <path d="M0,0 L16,0 L16,16 L0,16 Z" fill="#101828" />
  <path d="M0,4 L16,4 M0,8 L16,8 M0,12 L16,12 M4,0 L4,16 M8,0 L8,16 M12,0 L12,16" stroke="#1c2538" stroke-width="0.5" />
  
  <!-- Stars in background -->
  <circle cx="2.5" cy="2.5" r="0.15" fill="#ffffff" opacity="0.7" />
  <circle cx="13.5" cy="4.5" r="0.2" fill="#ffffff" opacity="0.8" />
  <circle cx="15" cy="14" r="0.1" fill="#ffffff" opacity="0.6" />
  <circle cx="3" cy="13" r="0.12" fill="#ffffff" opacity="0.7" />
  <circle cx="10" cy="1.5" r="0.18" fill="#ffffff" opacity="0.8" />
  <circle cx="1.5" cy="7" r="0.1" fill="#ffffff" opacity="0.6" />
  
  <!-- Main frame border with space-grade materials -->
  <rect x="1" y="1" width="14" height="14" fill="none" stroke="#2c4060" stroke-width="1.2" />
  
  <!-- Central oxygen generator chamber -->
  <rect x="3" y="3" width="10" height="10" fill="#0a1220" />
  <rect x="4" y="4" width="8" height="8" fill="#112036" />
  
  <!-- Oxygen tank with light blue glow -->
  <defs>
    <linearGradient id="oxygenGradient" x1="0%" y1="0%" x2="0%" y2="100%">
      <stop offset="0%" stop-color="#07c8f9" stop-opacity="0.7" />
      <stop offset="100%" stop-color="#07a0f9" stop-opacity="0.3" />
    </linearGradient>
  </defs>
  <rect x="5" y="5" width="6" height="6" rx="1" ry="1" fill="#081525" />
  <rect x="5.5" y="5.5" width="5" height="5" rx="0.8" ry="0.8" fill="url(#oxygenGradient)" />
  
  <!-- Central oxygen molecule symbol (O2) -->
  <circle cx="6.5" cy="8" r="0.8" fill="#ffffff" opacity="0.7" />
  <circle cx="9.5" cy="8" r="0.8" fill="#ffffff" opacity="0.7" />
  <rect x="7.3" y="7.8" width="2.2" height="0.4" fill="#ffffff" opacity="0.7" />
  
  <!-- Control panels and indicator lights -->
  <rect x="3.5" y="13" width="2" height="0.5" fill="#07c8f9" opacity="0.8" />
  <rect x="6" y="13" width="2" height="0.5" fill="#07c8f9" opacity="0.7" />
  <rect x="8.5" y="13" width="2" height="0.5" fill="#07c8f9" opacity="0.6" />
  <rect x="11" y="13" width="2" height="0.5" fill="#07c8f9" opacity="0.4" />
  
  <!-- Connection ports for space suit tubes -->
  <circle cx="3" cy="6" r="0.7" fill="#0a1525" stroke="#07c8f9" stroke-width="0.2" />
  <circle cx="3" cy="10" r="0.7" fill="#0a1525" stroke="#07c8f9" stroke-width="0.2" />
  <circle cx="13" cy="6" r="0.7" fill="#0a1525" stroke="#07c8f9" stroke-width="0.2" />
  <circle cx="13" cy="10" r="0.7" fill="#0a1525" stroke="#07c8f9" stroke-width="0.2" />
  
  <!-- Top vents and intake -->
  <rect x="6" y="2.5" width="4" height="0.5" fill="#112036" />
  <rect x="6.5" y="2.5" width="0.5" height="0.5" fill="#07c8f9" opacity="0.6" />
  <rect x="7.5" y="2.5" width="0.5" height="0.5" fill="#07c8f9" opacity="0.8" />
  <rect x="8.5" y="2.5" width="0.5" height="0.5" fill="#07c8f9" opacity="0.7" />
  <rect x="9.5" y="2.5" width="0.5" height="0.5" fill="#07c8f9" opacity="0.5" />
  
  <!-- Bottom oxygen output ports -->
  <rect x="6" y="13.5" width="4" height="0.5" fill="#112036" />
  <circle cx="7" cy="13.75" r="0.25" fill="#07c8f9" opacity="0.9" />
  <circle cx="9" cy="13.75" r="0.25" fill="#07c8f9" opacity="0.9" />
</svg>