<?xml version="1.0" encoding="UTF-8" standalone="no"?>
<svg width="16" height="16" viewBox="0 0 16 16" fill="none" xmlns="http://www.w3.org/2000/svg">
  <!-- Dark blue base -->
  <rect width="16" height="16" fill="#0A1428"/>
  
  <!-- Tech grid lines -->
  <path d="M0 0 H16 M0 4 H16 M0 8 H16 M0 12 H16 M0 16 H16" stroke="#1A3A5A" stroke-width="0.5"/>
  <path d="M0 0 V16 M4 0 V16 M8 0 V16 M12 0 V16 M16 0 V16" stroke="#1A3A5A" stroke-width="0.5"/>
  
  <!-- Assembly table top surface -->
  <rect x="1" y="2" width="14" height="12" fill="#102040"/>
  
  <!-- Tech designs/circuitry -->
  <path d="M2 4 H14 M2 6 H14 M2 8 H14 M2 10 H14 M2 12 H14" stroke="#0C5A8E" stroke-width="0.25"/>
  
  <!-- Rocket schematic outline -->
  <path d="M8 3 L10 8 L9 14 L7 14 L6 8 Z" stroke="#4BAEFF" stroke-width="0.5" fill="none"/>
  
  <!-- Control panels and indicators -->
  <rect x="2" y="5" width="3" height="1" fill="#153A5A"/>
  <rect x="11" y="5" width="3" height="1" fill="#153A5A"/>
  
  <!-- Glowing elements -->
  <circle cx="3" cy="5.5" r="0.5" fill="#00CCFF" opacity="0.8">
    <animate attributeName="opacity" values="0.5;0.9;0.5" dur="3s" repeatCount="indefinite"/>
  </circle>
  <circle cx="12" cy="5.5" r="0.5" fill="#00CCFF" opacity="0.8">
    <animate attributeName="opacity" values="0.5;0.9;0.5" dur="3s" repeatCount="indefinite"/>
  </circle>
  
  <!-- Holographic projection effect -->
  <path d="M8 6 L9 9 L8.5 12 L7.5 12 L7 9 Z" stroke="#00CCFF" stroke-width="0.25" opacity="0.6">
    <animate attributeName="opacity" values="0.4;0.8;0.4" dur="2s" repeatCount="indefinite"/>
  </path>
  
  <!-- Small tech details -->
  <circle cx="3" cy="10" r="0.75" stroke="#4BAEFF" stroke-width="0.25" fill="none"/>
  <circle cx="13" cy="10" r="0.75" stroke="#4BAEFF" stroke-width="0.25" fill="none"/>
  <rect x="2.5" cy="12" width="1" height="1" stroke="#4BAEFF" stroke-width="0.25" fill="none"/>
  <rect x="12.5" cy="12" width="1" height="1" stroke="#4BAEFF" stroke-width="0.25" fill="none"/>
</svg>