<?xml version="1.0" encoding="UTF-8" standalone="no"?>
<svg width="16" height="16" viewBox="0 0 16 16" xmlns="http://www.w3.org/2000/svg">
  <rect width="16" height="16" fill="none" />
  
  <!-- Base machine block -->
  <rect x="0" y="0" width="16" height="16" fill="#1a2536" />
  
  <!-- Machine edge highlights -->
  <rect x="0" y="0" width="16" height="1" fill="#2a3546" />
  <rect x="0" y="0" width="1" height="16" fill="#2a3546" />
  <rect x="0" y="15" width="16" height="1" fill="#101520" />
  <rect x="15" y="0" width="1" height="16" fill="#101520" />
  
  <!-- Machine frame details -->
  <rect x="2" y="2" width="12" height="12" fill="#121a26" stroke="#1e2c3c" stroke-width="0.5" />
  
  <!-- Assembler central pattern -->
  <rect x="5" y="5" width="6" height="6" fill="#0a111c" stroke="#0af" stroke-width="0.2" />
  
  <!-- Assembly robotic arm -->
  <path d="M3,9 L5,5" stroke="#0af" stroke-width="0.5" />
  <path d="M13,9 L11,5" stroke="#0af" stroke-width="0.5" />
  <circle cx="3" cy="9" r="1" fill="#1e2c3c" stroke="#0af" stroke-width="0.2" />
  <circle cx="13" cy="9" r="1" fill="#1e2c3c" stroke="#0af" stroke-width="0.2" />
  
  <!-- Assembly conveyor belts -->
  <rect x="2" y="10" width="4" height="1" fill="#1e2c3c" />
  <rect x="10" y="10" width="4" height="1" fill="#1e2c3c" />
  
  <!-- Assembly control panel -->
  <rect x="6" y="3" width="4" height="1" fill="#0f1c2c" stroke="#0af" stroke-width="0.2" />
  <circle cx="7" cy="3.5" r="0.3" fill="#0af" />
  <circle cx="9" cy="3.5" r="0.3" fill="#0af" />
  
  <!-- Glow effects -->
  <circle cx="8" cy="8" r="1" fill="#0af" opacity="0.3" />
  <circle cx="8" cy="8" r="2" fill="none" stroke="#0af" stroke-width="0.2" opacity="0.4" />
  
  <!-- Circuit pattern -->
  <path d="M5,7 L3,7" stroke="#0af" stroke-width="0.2" />
  <path d="M11,7 L13,7" stroke="#0af" stroke-width="0.2" />
  <path d="M8,5 L8,3" stroke="#0af" stroke-width="0.2" />
  <path d="M8,11 L8,13" stroke="#0af" stroke-width="0.2" />
</svg>