<?xml version="1.0" encoding="UTF-8" standalone="no"?>
<svg width="16" height="16" viewBox="0 0 16 16" xmlns="http://www.w3.org/2000/svg">
  <!-- Machinery Assembler Block - With Futuristic Blue Theme -->
  
  <!-- Background Glow Effect -->
  <filter id="glow">
    <feGaussianBlur stdDeviation="0.5" result="blur"/>
    <feComposite in="SourceGraphic" in2="blur" operator="over"/>
  </filter>
  
  <!-- Base Block -->
  <rect x="0" y="0" width="16" height="16" fill="#070b18" stroke="#112452" stroke-width="0.5"/>
  
  <!-- Inner Panel -->
  <rect x="1" y="1" width="14" height="14" fill="#0c1a3a" stroke="#1d3b7a" stroke-width="0.3"/>
  
  <!-- Tech Pattern -->
  <path d="M2,2 L14,2 L14,14 L2,14 Z" fill="none" stroke="#1d3b7a" stroke-width="0.2"/>
  <path d="M4,4 L12,4 L12,12 L4,12 Z" fill="none" stroke="#1d3b7a" stroke-width="0.2"/>
  
  <!-- Machinery Elements -->
  <rect x="5" y="5" width="6" height="6" fill="#0f4c9e" stroke="#2377de" stroke-width="0.3"/>
  
  <!-- Assembly Interface -->
  <line x1="3" y1="8" x2="5" y2="8" stroke="#2377de" stroke-width="0.4"/>
  <line x1="11" y1="8" x2="13" y2="8" stroke="#2377de" stroke-width="0.4"/>
  <line x1="8" y1="3" x2="8" y2="5" stroke="#2377de" stroke-width="0.4"/>
  <line x1="8" y1="11" x2="8" y2="13" stroke="#2377de" stroke-width="0.4"/>
  
  <!-- Assembly Gears -->
  <circle cx="3" cy="3" r="1" fill="#0f4c9e" stroke="#2377de" stroke-width="0.2"/>
  <circle cx="13" cy="3" r="1" fill="#0f4c9e" stroke="#2377de" stroke-width="0.2"/>
  <circle cx="3" cy="13" r="1" fill="#0f4c9e" stroke="#2377de" stroke-width="0.2"/>
  <circle cx="13" cy="13" r="1" fill="#0f4c9e" stroke="#2377de" stroke-width="0.2"/>
  
  <!-- Gear Details -->
  <line x1="3" y1="2" x2="3" y2="4" stroke="#2377de" stroke-width="0.2"/>
  <line x1="2" y1="3" x2="4" y2="3" stroke="#2377de" stroke-width="0.2"/>
  <line x1="13" y1="2" x2="13" y2="4" stroke="#2377de" stroke-width="0.2"/>
  <line x1="12" y1="3" x2="14" y2="3" stroke="#2377de" stroke-width="0.2"/>
  <line x1="3" y1="12" x2="3" y2="14" stroke="#2377de" stroke-width="0.2"/>
  <line x1="2" y1="13" x2="4" y2="13" stroke="#2377de" stroke-width="0.2"/>
  <line x1="13" y1="12" x2="13" y2="14" stroke="#2377de" stroke-width="0.2"/>
  <line x1="12" y1="13" x2="14" y2="13" stroke="#2377de" stroke-width="0.2"/>
  
  <!-- Central Machinery Core -->
  <circle cx="8" cy="8" r="2" fill="#183e7a" stroke="#2377de" stroke-width="0.2"/>
  <circle cx="8" cy="8" r="1" fill="#0f4c9e" stroke="#2377de" stroke-width="0.2"/>
  <circle cx="8" cy="8" r="0.5" fill="#4ca5ff" filter="url(#glow)"/>
  
  <!-- Assembly Patterns -->
  <path d="M6,6 L7,7 L6,8 L7,9 L6,10" fill="none" stroke="#4ca5ff" stroke-width="0.2"/>
  <path d="M10,6 L9,7 L10,8 L9,9 L10,10" fill="none" stroke="#4ca5ff" stroke-width="0.2"/>
  
  <!-- Tech Indicators -->
  <rect x="5.5" y="5.5" width="1" height="1" fill="#2377de" opacity="0.7"/>
  <rect x="9.5" y="5.5" width="1" height="1" fill="#2377de" opacity="0.7"/>
  <rect x="5.5" y="9.5" width="1" height="1" fill="#2377de" opacity="0.7"/>
  <rect x="9.5" y="9.5" width="1" height="1" fill="#2377de" opacity="0.7"/>
</svg>