<?xml version="1.0" encoding="UTF-8" standalone="no"?>
<svg width="16" height="16" viewBox="0 0 16 16" xmlns="http://www.w3.org/2000/svg">
  <rect width="16" height="16" fill="none" />
  
  <!-- Base machine block -->
  <rect x="0" y="0" width="16" height="16" fill="#1a2536" />
  
  <!-- Machine edge highlights -->
  <rect x="0" y="0" width="16" height="1" fill="#2a3546" />
  <rect x="0" y="0" width="1" height="16" fill="#2a3546" />
  <rect x="0" y="15" width="16" height="1" fill="#101520" />
  <rect x="15" y="0" width="1" height="16" fill="#101520" />
  
  <!-- Machine frame details -->
  <rect x="2" y="2" width="12" height="12" fill="#121a26" stroke="#1e2c3c" stroke-width="0.5" />
  
  <!-- Crusher internal chamber -->
  <rect x="4" y="6" width="8" height="6" fill="#0a111c" stroke="#0af" stroke-width="0.2" />
  
  <!-- Crusher gears and pistons -->
  <circle cx="5" cy="9" r="1.2" fill="#1e2c3c" stroke="#0af" stroke-width="0.2" />
  <circle cx="11" cy="9" r="1.2" fill="#1e2c3c" stroke="#0af" stroke-width="0.2" />
  <circle cx="5" cy="9" r="0.6" fill="#0f1c2c" stroke="#0af" stroke-width="0.2" />
  <circle cx="11" cy="9" r="0.6" fill="#0f1c2c" stroke="#0af" stroke-width="0.2" />
  
  <!-- Crusher teeth -->
  <path d="M5.5,7.5 L6.5,8.5 L7.5,7.5 L8.5,8.5 L9.5,7.5 L10.5,8.5" stroke="#0af" stroke-width="0.3" />
  <path d="M5.5,10.5 L6.5,9.5 L7.5,10.5 L8.5,9.5 L9.5,10.5 L10.5,9.5" stroke="#0af" stroke-width="0.3" />
  
  <!-- Input hopper -->
  <path d="M6,4 L10,4 L8,6 Z" fill="#1e2c3c" stroke="#0af" stroke-width="0.2" />
  
  <!-- Output spout -->
  <rect x="7" y="12" width="2" height="2" fill="#1e2c3c" stroke="#0af" stroke-width="0.2" />
  
  <!-- Control panel -->
  <rect x="3" y="3" width="2" height="1" fill="#0f1c2c" stroke="#0af" stroke-width="0.2" />
  <circle cx="3.5" cy="3.5" r="0.3" fill="#0af" />
  <circle cx="4.5" cy="3.5" r="0.3" fill="#0af" />
  
  <!-- Circuit pattern -->
  <path d="M3,5 L3,12" stroke="#0af" stroke-width="0.2" />
  <path d="M13,5 L13,12" stroke="#0af" stroke-width="0.2" />
  <path d="M3,5 L5,5" stroke="#0af" stroke-width="0.2" />
  <path d="M13,5 L11,5" stroke="#0af" stroke-width="0.2" />
</svg>