<?xml version="1.0" encoding="UTF-8" standalone="no"?>
<svg width="16" height="16" viewBox="0 0 16 16" xmlns="http://www.w3.org/2000/svg">
  <!-- Crusher Block - With Futuristic Blue Theme -->
  
  <!-- Background Glow Effect -->
  <filter id="glow">
    <feGaussianBlur stdDeviation="0.5" result="blur"/>
    <feComposite in="SourceGraphic" in2="blur" operator="over"/>
  </filter>
  
  <!-- Base Block -->
  <rect x="0" y="0" width="16" height="16" fill="#070b18" stroke="#112452" stroke-width="0.5"/>
  
  <!-- Inner Panel -->
  <rect x="1" y="1" width="14" height="14" fill="#0c1a3a" stroke="#1d3b7a" stroke-width="0.3"/>
  
  <!-- Tech Grid Pattern -->
  <path d="M0,4 L16,4 M0,8 L16,8 M0,12 L16,12 M4,0 L4,16 M8,0 L8,16 M12,0 L12,16" stroke="#1d3b7a" stroke-width="0.3"/>
  
  <!-- Central crushing mechanism area -->
  <rect x="3" y="3" width="10" height="10" fill="#0f192d" stroke="#1d3b7a" stroke-width="0.3"/>
  
  <!-- Crusher gears and mechanisms -->
  <circle cx="8" cy="8" r="3.5" fill="#0f4c9e" stroke="#2377de" stroke-width="0.3"/>
  <circle cx="8" cy="8" r="2.8" fill="#0d2957" stroke="#1d3b7a" stroke-width="0.2"/>
  <circle cx="8" cy="8" r="2.2" fill="#0f192d" stroke="#2377de" stroke-width="0.4"/>
  
  <!-- Crusher teeth/gears -->
  <path d="M8,5.8 L9,6.8 L10.2,8 L9,9.2 L8,10.2 L7,9.2 L5.8,8 L7,6.8 Z" fill="#1d3b7a" stroke="#2377de" stroke-width="0.3"/>
  <circle cx="8" cy="8" r="1.2" fill="#2377de" opacity="0.7" filter="url(#glow)"/>
  <circle cx="8" cy="8" r="0.6" fill="#4ca5ff" opacity="0.9"/>
  
  <!-- Tech panels along the sides -->
  <rect x="1.2" y="3" width="1.3" height="10" fill="#0f192d" stroke="#1d3b7a" stroke-width="0.2"/>
  <rect x="13.5" y="3" width="1.3" height="10" fill="#0f192d" stroke="#1d3b7a" stroke-width="0.2"/>
  <rect x="3" y="1.2" width="10" height="1.3" fill="#0f192d" stroke="#1d3b7a" stroke-width="0.2"/>
  <rect x="3" y="13.5" width="10" height="1.3" fill="#0f192d" stroke="#1d3b7a" stroke-width="0.2"/>
  
  <!-- Crusher operator interface -->
  <rect x="3.5" y="3.5" width="2" height="1" fill="#0f4c9e" stroke="#2377de" stroke-width="0.2"/>
  <rect x="3.5" y="11.5" width="2" height="1" fill="#0f4c9e" stroke="#2377de" stroke-width="0.2"/>
  <rect x="10.5" y="3.5" width="2" height="1" fill="#0f4c9e" stroke="#2377de" stroke-width="0.2"/>
  <rect x="10.5" y="11.5" width="2" height="1" fill="#0f4c9e" stroke="#2377de" stroke-width="0.2"/>
  
  <!-- Tech details - corner accents -->
  <rect x="1.5" y="1.5" width="1.2" height="1.2" fill="#0f4c9e" stroke="#2377de" stroke-width="0.2"/>
  <rect x="13.3" y="1.5" width="1.2" height="1.2" fill="#0f4c9e" stroke="#2377de" stroke-width="0.2"/>
  <rect x="1.5" y="13.3" width="1.2" height="1.2" fill="#0f4c9e" stroke="#2377de" stroke-width="0.2"/>
  <rect x="13.3" y="13.3" width="1.2" height="1.2" fill="#0f4c9e" stroke="#2377de" stroke-width="0.2"/>
  
  <!-- Small indicator lights -->
  <circle cx="2.5" cy="6" r="0.5" fill="#4ca5ff" opacity="0.9" filter="url(#glow)"/>
  <circle cx="2.5" cy="10" r="0.5" fill="#4ca5ff" opacity="0.7" filter="url(#glow)"/>
  <circle cx="13.5" cy="6" r="0.5" fill="#4ca5ff" opacity="0.8" filter="url(#glow)"/>
  <circle cx="13.5" cy="10" r="0.5" fill="#4ca5ff" opacity="1" filter="url(#glow)"/>
  
  <!-- Circuit-like pattern -->
  <path d="M4,4 L5,5 M12,4 L11,5 M4,12 L5,11 M12,12 L11,11" stroke="#4ca5ff" stroke-width="0.5" opacity="0.6"/>
  
  <!-- Crusher mechanical details - jagged teeth simulation -->
  <path d="M5.5,8 L6,7.5 L6.5,8 L7,7.5 L7.5,8 L8,7.5 L8.5,8 L9,7.5 L9.5,8 L10,7.5 L10.5,8" 
        stroke="#4ca5ff" stroke-width="0.5" opacity="0.8"/>
  <path d="M5.5,8 L6,8.5 L6.5,8 L7,8.5 L7.5,8 L8,8.5 L8.5,8 L9,8.5 L9.5,8 L10,8.5 L10.5,8" 
        stroke="#4ca5ff" stroke-width="0.5" opacity="0.8"/>
</svg>