<?xml version="1.0" encoding="UTF-8" standalone="no"?>
<svg width="16" height="16" viewBox="0 0 16 16" xmlns="http://www.w3.org/2000/svg">
  <rect width="16" height="16" fill="none" />
  
  <!-- Base machine block -->
  <rect x="0" y="0" width="16" height="16" fill="#1a2536" />
  
  <!-- Machine edge highlights -->
  <rect x="0" y="0" width="16" height="1" fill="#2a3546" />
  <rect x="0" y="0" width="1" height="16" fill="#2a3546" />
  <rect x="0" y="15" width="16" height="1" fill="#101520" />
  <rect x="15" y="0" width="1" height="16" fill="#101520" />
  
  <!-- Machine frame details -->
  <rect x="2" y="2" width="12" height="12" fill="#121a26" stroke="#1e2c3c" stroke-width="0.5" />
  
  <!-- Extractor main tank -->
  <rect x="5" y="5" width="6" height="8" fill="#0a111c" stroke="#0af" stroke-width="0.2" rx="1" ry="1" />
  
  <!-- Extraction medium -->
  <rect x="5.5" y="7" width="5" height="5" fill="#0f1c2c" stroke="#0af" stroke-width="0.1" rx="0.5" ry="0.5" />
  
  <!-- Extraction bubbles effect -->
  <circle cx="6.5" cy="8.5" r="0.3" fill="#0af" opacity="0.4" />
  <circle cx="8" cy="10" r="0.4" fill="#0af" opacity="0.5" />
  <circle cx="9.5" cy="9" r="0.3" fill="#0af" opacity="0.4" />
  <circle cx="7.5" cy="11" r="0.2" fill="#0af" opacity="0.3" />
  
  <!-- Input tubes -->
  <rect x="3" y="6" width="2" height="1" fill="#1e2c3c" stroke="#0af" stroke-width="0.2" />
  <rect x="11" y="6" width="2" height="1" fill="#1e2c3c" stroke="#0af" stroke-width="0.2" />
  
  <!-- Output tube -->
  <rect x="7" y="13" width="2" height="1" fill="#1e2c3c" stroke="#0af" stroke-width="0.2" />
  
  <!-- Extraction filter -->
  <rect x="6" y="5" width="4" height="1" fill="#1e2c3c" stroke="#0af" stroke-width="0.2" />
  <path d="M6.5,5.5 L9.5,5.5" stroke="#0af" stroke-width="0.3" />
  
  <!-- Control panel -->
  <rect x="4" y="3" width="8" height="1" fill="#0f1c2c" stroke="#0af" stroke-width="0.2" />
  <circle cx="5" cy="3.5" r="0.3" fill="#0af" />
  <circle cx="7" cy="3.5" r="0.3" fill="#0af" />
  <circle cx="9" cy="3.5" r="0.3" fill="#0af" />
  <circle cx="11" cy="3.5" r="0.3" fill="#0af" />
  
  <!-- Pressure gauges -->
  <circle cx="3.5" cy="3.5" r="0.7" fill="#0f1c2c" stroke="#0af" stroke-width="0.2" />
  <path d="M3.5,3.2 L3.5,3.8" stroke="#0af" stroke-width="0.1" />
  <path d="M3.2,3.5 L3.8,3.5" stroke="#0af" stroke-width="0.1" />
  
  <circle cx="12.5" cy="3.5" r="0.7" fill="#0f1c2c" stroke="#0af" stroke-width="0.2" />
  <path d="M12.5,3.2 L12.5,3.8" stroke="#0af" stroke-width="0.1" />
  <path d="M12.2,3.5 L12.8,3.5" stroke="#0af" stroke-width="0.1" />
  
  <!-- Circuit pattern -->
  <path d="M3.5,4.2 L3.5,6" stroke="#0af" stroke-width="0.2" />
  <path d="M12.5,4.2 L12.5,6" stroke="#0af" stroke-width="0.2" />
  <path d="M8,4 L8,5" stroke="#0af" stroke-width="0.2" />
</svg>