<?xml version="1.0" encoding="UTF-8" standalone="no"?>
<svg width="16" height="16" viewBox="0 0 16 16" xmlns="http://www.w3.org/2000/svg">
  <rect width="16" height="16" fill="none" />
  
  <!-- Base machine block -->
  <rect x="0" y="0" width="16" height="16" fill="#1a2536" />
  
  <!-- Machine edge highlights -->
  <rect x="0" y="0" width="16" height="1" fill="#2a3546" />
  <rect x="0" y="0" width="1" height="16" fill="#2a3546" />
  <rect x="0" y="15" width="16" height="1" fill="#101520" />
  <rect x="15" y="0" width="1" height="16" fill="#101520" />
  
  <!-- Machine frame details -->
  <rect x="2" y="2" width="12" height="12" fill="#121a26" stroke="#1e2c3c" stroke-width="0.5" />
  
  <!-- Smelter furnace chamber -->
  <rect x="4" y="5" width="8" height="6" fill="#0a111c" stroke="#0af" stroke-width="0.2" />
  
  <!-- Smelter heating element -->
  <rect x="5" y="9" width="6" height="1" fill="#1e2c3c" />
  <path d="M5,9.5 L11,9.5" stroke="#0af" stroke-width="0.5" />
  
  <!-- Hot material glow -->
  <rect x="5" y="6" width="6" height="2" fill="#0f1c2c" />
  <rect x="5" y="6" width="6" height="2" fill="#0af" opacity="0.2" />
  <path d="M5,7 L11,7" stroke="#0af" stroke-width="0.3" opacity="0.7" />
  
  <!-- Control panel -->
  <rect x="4" y="3" width="4" height="1" fill="#0f1c2c" stroke="#0af" stroke-width="0.2" />
  <circle cx="5" cy="3.5" r="0.3" fill="#0af" />
  <circle cx="6" cy="3.5" r="0.3" fill="#0af" />
  <circle cx="7" cy="3.5" r="0.3" fill="#0af" />
  
  <!-- Temperature gauge -->
  <circle cx="11" cy="3.5" r="1" fill="#0f1c2c" stroke="#0af" stroke-width="0.2" />
  <path d="M11,3 L11,4" stroke="#0af" stroke-width="0.2" />
  <path d="M10.5,3.5 L11.5,3.5" stroke="#0af" stroke-width="0.2" />
  
  <!-- Input hopper -->
  <rect x="6" y="4" width="4" height="1" fill="#1e2c3c" stroke="#0af" stroke-width="0.2" />
  
  <!-- Output spout -->
  <rect x="7" y="11" width="2" height="2" fill="#1e2c3c" stroke="#0af" stroke-width="0.2" />
  
  <!-- Heat vents -->
  <rect x="3" y="6" width="1" height="1" fill="#101520" />
  <rect x="3" y="8" width="1" height="1" fill="#101520" />
  <rect x="12" y="6" width="1" height="1" fill="#101520" />
  <rect x="12" y="8" width="1" height="1" fill="#101520" />
  
  <!-- Heat vent glow -->
  <rect x="3" y="6" width="1" height="1" fill="#0af" opacity="0.3" />
  <rect x="3" y="8" width="1" height="1" fill="#0af" opacity="0.3" />
  <rect x="12" y="6" width="1" height="1" fill="#0af" opacity="0.3" />
  <rect x="12" y="8" width="1" height="1" fill="#0af" opacity="0.3" />
  
  <!-- Circuit pattern -->
  <path d="M3,6.5 L4,6.5" stroke="#0af" stroke-width="0.2" />
  <path d="M3,8.5 L4,8.5" stroke="#0af" stroke-width="0.2" />
  <path d="M12,6.5 L13,6.5" stroke="#0af" stroke-width="0.2" />
  <path d="M12,8.5 L13,8.5" stroke="#0af" stroke-width="0.2" />
</svg>