<?xml version="1.0" encoding="UTF-8" standalone="no"?>
<svg width="16" height="16" viewBox="0 0 16 16" xmlns="http://www.w3.org/2000/svg">
  <!-- Smelter Block - With Futuristic Blue Theme -->
  
  <!-- Background Glow Effect -->
  <filter id="glow">
    <feGaussianBlur stdDeviation="0.5" result="blur"/>
    <feComposite in="SourceGraphic" in2="blur" operator="over"/>
  </filter>
  
  <!-- Base Block -->
  <rect x="0" y="0" width="16" height="16" fill="#070b18" stroke="#112452" stroke-width="0.5"/>
  
  <!-- Inner Panel -->
  <rect x="1" y="1" width="14" height="14" fill="#0c1a3a" stroke="#1d3b7a" stroke-width="0.3"/>
  
  <!-- Tech Grid Pattern -->
  <path d="M0,4 L16,4 M0,8 L16,8 M0,12 L16,12 M4,0 L4,16 M8,0 L8,16 M12,0 L12,16" stroke="#1d3b7a" stroke-width="0.3"/>
  
  <!-- Central smelter area -->
  <rect x="3" y="3" width="10" height="10" fill="#0f192d" stroke="#1d3b7a" stroke-width="0.3"/>
  <rect x="4" y="4" width="8" height="8" fill="#0f4c9e" stroke="#2377de" stroke-width="0.3"/>
  
  <!-- Smelter chamber with molten material -->
  <rect x="5" y="5" width="6" height="6" fill="#0d2957" rx="1" stroke="#2377de" stroke-width="0.2"/>
  
  <!-- Molten material glow effect -->
  <rect x="5.5" y="5.5" width="5" height="5" fill="#4ca5ff" opacity="0.2" rx="1" filter="url(#glow)"/>
  <rect x="6" y="6" width="4" height="4" fill="#4ca5ff" opacity="0.4" rx="0.8" filter="url(#glow)"/>
  
  <!-- Heat indicators showing an active smelter -->
  <path d="M6,7.5 L7,6.5 L8,7.5 L9,6.5 L10,7.5 L10,9.5 L6,9.5 Z" fill="#4ca5ff" opacity="0.7" filter="url(#glow)"/>
  
  <!-- Tech panels along the sides -->
  <rect x="1.2" y="3" width="1.3" height="10" fill="#0f192d" stroke="#1d3b7a" stroke-width="0.2"/>
  <rect x="13.5" y="3" width="1.3" height="10" fill="#0f192d" stroke="#1d3b7a" stroke-width="0.2"/>
  <rect x="3" y="1.2" width="10" height="1.3" fill="#0f192d" stroke="#1d3b7a" stroke-width="0.2"/>
  <rect x="3" y="13.5" width="10" height="1.3" fill="#0f192d" stroke="#1d3b7a" stroke-width="0.2"/>
  
  <!-- Temperature gauge -->
  <circle cx="2.5" cy="8" r="1" fill="#0d2957" stroke="#2377de" stroke-width="0.3"/>
  <path d="M2.5,7 L2.5,9" stroke="#4ca5ff" stroke-width="0.5"/>
  <path d="M1.7,8 L3.3,8" stroke="#4ca5ff" stroke-width="0.5"/>
  
  <!-- Tech details - corner accents -->
  <rect x="1.5" y="1.5" width="1.2" height="1.2" fill="#0f4c9e" stroke="#2377de" stroke-width="0.2"/>
  <rect x="13.3" y="1.5" width="1.2" height="1.2" fill="#0f4c9e" stroke="#2377de" stroke-width="0.2"/>
  <rect x="1.5" y="13.3" width="1.2" height="1.2" fill="#0f4c9e" stroke="#2377de" stroke-width="0.2"/>
  <rect x="13.3" y="13.3" width="1.2" height="1.2" fill="#0f4c9e" stroke="#2377de" stroke-width="0.2"/>
  
  <!-- Small indicator lights -->
  <circle cx="2.5" cy="6" r="0.5" fill="#4ca5ff" opacity="0.9" filter="url(#glow)"/>
  <circle cx="2.5" cy="10" r="0.5" fill="#4ca5ff" opacity="0.7" filter="url(#glow)"/>
  <circle cx="13.5" cy="6" r="0.5" fill="#4ca5ff" opacity="0.8" filter="url(#glow)"/>
  <circle cx="13.5" cy="10" r="0.5" fill="#4ca5ff" opacity="1" filter="url(#glow)"/>
  
  <!-- Circuit-like pattern -->
  <path d="M4,4 L5,5 M12,4 L11,5 M4,12 L5,11 M12,12 L11,11" stroke="#4ca5ff" stroke-width="0.5" opacity="0.6"/>
  
  <!-- Smelter ventilation slits -->
  <path d="M5,10.5 L6,10.5 M7,10.5 L8,10.5 M9,10.5 L10,10.5 M11,10.5" stroke="#4ca5ff" stroke-width="0.5" opacity="0.5"/>
  
  <!-- Heat emission lines -->
  <path d="M6.5,5 L6.5,4 M7.5,5 L7.5,4 M8.5,5 L8.5,4 M9.5,5 L9.5,4" stroke="#4ca5ff" stroke-width="0.3" opacity="0.5" stroke-dasharray="0.5,0.5"/>
</svg>