<?xml version="1.0" encoding="UTF-8" standalone="no"?>
<svg width="16" height="16" viewBox="0 0 16 16" xmlns="http://www.w3.org/2000/svg">
  <!-- Power Generator Block - With Futuristic Blue Theme -->
  
  <!-- Background Glow Effect -->
  <filter id="glow">
    <feGaussianBlur stdDeviation="0.6" result="blur"/>
    <feComposite in="SourceGraphic" in2="blur" operator="over"/>
  </filter>
  
  <!-- Base Block -->
  <rect x="0" y="0" width="16" height="16" fill="#070b18" stroke="#112452" stroke-width="0.5"/>
  
  <!-- Inner Panel -->
  <rect x="1" y="1" width="14" height="14" fill="#0c1a3a" stroke="#1d3b7a" stroke-width="0.3"/>
  
  <!-- Tech Pattern - Grid -->
  <line x1="1" y1="4" x2="15" y2="4" stroke="#1d3b7a" stroke-width="0.2"/>
  <line x1="1" y1="8" x2="15" y2="8" stroke="#1d3b7a" stroke-width="0.2"/>
  <line x1="1" y1="12" x2="15" y2="12" stroke="#1d3b7a" stroke-width="0.2"/>
  <line x1="4" y1="1" x2="4" y2="15" stroke="#1d3b7a" stroke-width="0.2"/>
  <line x1="8" y1="1" x2="8" y2="15" stroke="#1d3b7a" stroke-width="0.2"/>
  <line x1="12" y1="1" x2="12" y2="15" stroke="#1d3b7a" stroke-width="0.2"/>
  
  <!-- Power Core Element -->
  <circle cx="8" cy="8" r="3.5" fill="#0f4c9e" stroke="#2377de" stroke-width="0.3" filter="url(#glow)"/>
  
  <!-- Power Generation Swirl -->
  <path d="M8,5 Q10,8 8,11 Q6,8 8,5" fill="#2377de" stroke="#4ca5ff" stroke-width="0.2" opacity="0.8"/>
  <path d="M5,8 Q8,6 11,8 Q8,10 5,8" fill="#2377de" stroke="#4ca5ff" stroke-width="0.2" opacity="0.8"/>
  
  <!-- Energy Glow -->
  <circle cx="8" cy="8" r="1.5" fill="#4ca5ff" opacity="0.7" filter="url(#glow)"/>
  <circle cx="8" cy="8" r="0.7" fill="#7bc5ff" opacity="0.9"/>
  
  <!-- Corner Accents -->
  <circle cx="2" cy="2" r="0.5" fill="#1d3b7a" stroke="#2377de" stroke-width="0.2"/>
  <circle cx="14" cy="2" r="0.5" fill="#1d3b7a" stroke="#2377de" stroke-width="0.2"/>
  <circle cx="2" cy="14" r="0.5" fill="#1d3b7a" stroke="#2377de" stroke-width="0.2"/>
  <circle cx="14" cy="14" r="0.5" fill="#1d3b7a" stroke="#2377de" stroke-width="0.2"/>
  
  <!-- Energy Lines -->
  <line x1="5" y1="8" x2="11" y2="8" stroke="#4ca5ff" stroke-width="0.3" opacity="0.7"/>
  <line x1="8" y1="5" x2="8" y2="11" stroke="#4ca5ff" stroke-width="0.3" opacity="0.7"/>
  
  <!-- Energy Sparkles -->
  <circle cx="5" cy="5" r="0.2" fill="#7bc5ff"/>
  <circle cx="5" cy="11" r="0.2" fill="#7bc5ff"/>
  <circle cx="11" cy="5" r="0.2" fill="#7bc5ff"/>
  <circle cx="11" cy="11" r="0.2" fill="#7bc5ff"/>
  
  <!-- Pulsing Energy Indicators -->
  <rect x="2" y="6" width="1" height="4" rx="0.2" ry="0.2" fill="#2377de" opacity="0.7"/>
  <rect x="13" y="6" width="1" height="4" rx="0.2" ry="0.2" fill="#2377de" opacity="0.7"/>
  <rect x="6" y="2" width="4" height="1" rx="0.2" ry="0.2" fill="#2377de" opacity="0.7"/>
  <rect x="6" y="13" width="4" height="1" rx="0.2" ry="0.2" fill="#2377de" opacity="0.7"/>
</svg>