<?xml version="1.0" encoding="UTF-8" standalone="no"?>
<svg xmlns="http://www.w3.org/2000/svg" width="16" height="16" viewBox="0 0 16 16">
  <!-- Transparent background -->
  <rect width="16" height="16" fill="#0A192F" fill-opacity="0" />
  
  <!-- Circuit board base (dark blue) -->
  <rect x="1" y="1" width="14" height="14" rx="1" fill="#0B2B5B" stroke="#4299E1" stroke-width="0.3" />
  
  <!-- Main processor (center) -->
  <rect x="5.5" y="5.5" width="5" height="5" rx="0.5" fill="#1A365D" stroke="#4299E1" stroke-width="0.2" />
  
  <!-- Processor glow effect -->
  <rect x="6" y="6" width="4" height="4" rx="0.3" fill="#0BC5EA" fill-opacity="0.15" />
  
  <!-- Circuit traces - horizontal -->
  <line x1="1" y1="4" x2="15" y2="4" stroke="#4299E1" stroke-width="0.2" />
  <line x1="1" y1="8" x2="15" y2="8" stroke="#4299E1" stroke-width="0.2" />
  <line x1="1" y1="12" x2="15" y2="12" stroke="#4299E1" stroke-width="0.2" />
  
  <!-- Circuit traces - vertical -->
  <line x1="4" y1="1" x2="4" y2="15" stroke="#4299E1" stroke-width="0.2" />
  <line x1="8" y1="1" x2="8" y2="15" stroke="#4299E1" stroke-width="0.2" />
  <line x1="12" y1="1" x2="12" y2="15" stroke="#4299E1" stroke-width="0.2" />
  
  <!-- Chip components -->
  <rect x="2" y="2" width="1.5" height="1.5" rx="0.2" fill="#1A365D" stroke="#4299E1" stroke-width="0.15" />
  <rect x="12.5" y="2" width="1.5" height="1.5" rx="0.2" fill="#1A365D" stroke="#4299E1" stroke-width="0.15" />
  <rect x="2" y="12.5" width="1.5" height="1.5" rx="0.2" fill="#1A365D" stroke="#4299E1" stroke-width="0.15" />
  <rect x="12.5" y="12.5" width="1.5" height="1.5" rx="0.2" fill="#1A365D" stroke="#4299E1" stroke-width="0.15" />
  
  <!-- Microchip details -->
  <line x1="2.3" y1="2.3" x2="3.2" y2="3.2" stroke="#0BC5EA" stroke-width="0.1" />
  <line x1="2.3" y1="3.2" x2="3.2" y2="2.3" stroke="#0BC5EA" stroke-width="0.1" />
  
  <line x1="12.8" y1="2.3" x2="13.7" y2="3.2" stroke="#0BC5EA" stroke-width="0.1" />
  <line x1="12.8" y1="3.2" x2="13.7" y2="2.3" stroke="#0BC5EA" stroke-width="0.1" />
  
  <line x1="2.3" y1="12.8" x2="3.2" y2="13.7" stroke="#0BC5EA" stroke-width="0.1" />
  <line x1="2.3" y1="13.7" x2="3.2" y2="12.8" stroke="#0BC5EA" stroke-width="0.1" />
  
  <line x1="12.8" y1="12.8" x2="13.7" y2="13.7" stroke="#0BC5EA" stroke-width="0.1" />
  <line x1="12.8" y1="13.7" x2="13.7" y2="12.8" stroke="#0BC5EA" stroke-width="0.1" />
  
  <!-- Central CPU Technical Details -->
  <path d="M6.5,7 L9.5,7 M6.5,9 L9.5,9 M7.5,6 L7.5,10 M8.5,6 L8.5,10" stroke="#0BC5EA" stroke-width="0.15" />
  
  <!-- Connection points (glowing) -->
  <circle cx="4" cy="4" r="0.3" fill="#0BC5EA" opacity="0.9" />
  <circle cx="4" cy="8" r="0.3" fill="#0BC5EA" opacity="0.9" />
  <circle cx="4" cy="12" r="0.3" fill="#0BC5EA" opacity="0.9" />
  
  <circle cx="8" cy="4" r="0.3" fill="#0BC5EA" opacity="0.9" />
  <circle cx="8" cy="12" r="0.3" fill="#0BC5EA" opacity="0.9" />
  
  <circle cx="12" cy="4" r="0.3" fill="#0BC5EA" opacity="0.9" />
  <circle cx="12" cy="8" r="0.3" fill="#0BC5EA" opacity="0.9" />
  <circle cx="12" cy="12" r="0.3" fill="#0BC5EA" opacity="0.9" />
</svg>