<?xml version="1.0" encoding="UTF-8" standalone="no"?>
<svg xmlns="http://www.w3.org/2000/svg" width="16" height="16" viewBox="0 0 16 16">
  <!-- Base dark blue background -->
  <rect width="16" height="16" fill="#0A192F" fill-opacity="0" />
  
  <!-- Engine block -->
  <rect x="2" y="3" width="12" height="10" rx="1" ry="1" fill="#0B2B5B" stroke="#4299E1" stroke-width="0.5" />
  
  <!-- Engine details -->
  <rect x="3" y="4" width="10" height="8" rx="0.5" ry="0.5" fill="#1A365D" stroke="#4299E1" stroke-width="0.3" />
  
  <!-- Engine components -->
  <circle cx="5" cy="6" r="1" fill="#0B2B5B" stroke="#0BC5EA" stroke-width="0.3" />
  <circle cx="8" cy="6" r="1" fill="#0B2B5B" stroke="#0BC5EA" stroke-width="0.3" />
  <circle cx="11" cy="6" r="1" fill="#0B2B5B" stroke="#0BC5EA" stroke-width="0.3" />
  
  <!-- Engine pistons -->
  <rect x="4" y="8" width="2" height="3" rx="0.3" ry="0.3" fill="#0B2B5B" stroke="#0BC5EA" stroke-width="0.3" />
  <rect x="7" y="8" width="2" height="3" rx="0.3" ry="0.3" fill="#0B2B5B" stroke="#0BC5EA" stroke-width="0.3" />
  <rect x="10" y="8" width="2" height="3" rx="0.3" ry="0.3" fill="#0B2B5B" stroke="#0BC5EA" stroke-width="0.3" />
  
  <!-- Engine top -->
  <rect x="4" y="2" width="8" height="1.5" rx="0.5" ry="0.5" fill="#1A365D" stroke="#4299E1" stroke-width="0.3" />
  
  <!-- Glowing elements -->
  <circle cx="5" cy="6" r="0.3" fill="#0BC5EA" opacity="0.8" />
  <circle cx="8" cy="6" r="0.3" fill="#0BC5EA" opacity="0.8" />
  <circle cx="11" cy="6" r="0.3" fill="#0BC5EA" opacity="0.8" />
  
  <!-- Tech pattern -->
  <line x1="3" y1="7" x2="13" y2="7" stroke="#4299E1" stroke-width="0.2" />
  <line x1="6" y1="5" x2="6" y2="7" stroke="#4299E1" stroke-width="0.2" />
  <line x1="9" y1="5" x2="9" y2="7" stroke="#4299E1" stroke-width="0.2" />
</svg>