<?xml version="1.0" encoding="UTF-8" standalone="no"?>
<svg xmlns="http://www.w3.org/2000/svg" width="16" height="16" viewBox="0 0 16 16">
  <!-- Base item shape - slightly smaller than block texture -->
  <rect x="1" y="1" width="14" height="14" rx="2" fill="#1a2837" />
  
  <!-- Subtle grid pattern for tech feel -->
  <path d="M1,5 L15,5 M1,9 L15,9 M1,13 L15,13 M5,1 L5,15 M9,1 L9,15 M13,1 L13,15" stroke="#223244" stroke-width="0.3" />
  
  <!-- Main frame border -->
  <rect x="1" y="1" width="14" height="14" rx="2" fill="none" stroke="#2c3e50" stroke-width="0.8" />
  
  <!-- Central smelter mechanism visualization -->
  <rect x="3.5" y="3.5" width="9" height="9" rx="1" fill="#0d1a26" />
  <rect x="4.5" y="4.5" width="7" height="7" rx="0.5" fill="#152638" />
  
  <!-- Smelter chamber with molten material -->
  <rect x="5.5" y="5.5" width="5" height="5" rx="0.8" fill="#0a1520" />
  
  <!-- Molten material glow effect -->
  <rect x="6" y="6" width="4" height="4" rx="0.8" fill="#07c8f9" opacity="0.2" />
  <rect x="6.5" y="6.5" width="3" height="3" rx="0.6" fill="#07c8f9" opacity="0.4" />
  
  <!-- Heat indicators -->
  <path d="M6.5,7.5 L7.5,6.5 L8,7.5 L8.5,6.5 L9.5,7.5 L9.5,8.5 L6.5,8.5 Z" fill="#07c8f9" opacity="0.6" />
  
  <!-- Circuit-like accent pattern -->
  <path d="M5,8 L6,8 M10,8 L11,8 M8,5 L8,6 M8,10 L8,11" stroke="#07c8f9" stroke-width="0.3" opacity="0.8" />
  
  <!-- Corner details -->
  <circle cx="3" cy="3" r="0.8" fill="#0a1520" />
  <circle cx="13" cy="3" r="0.8" fill="#0a1520" />
  <circle cx="3" cy="13" r="0.8" fill="#0a1520" />
  <circle cx="13" cy="13" r="0.8" fill="#0a1520" />
  
  <!-- Small indicator lights -->
  <circle cx="3" cy="3" r="0.4" fill="#07c8f9" opacity="0.9" />
  <circle cx="13" cy="3" r="0.4" fill="#07c8f9" opacity="0.8" />
  <circle cx="3" cy="13" r="0.4" fill="#07c8f9" opacity="0.7" />
  <circle cx="13" cy="13" r="0.4" fill="#07c8f9" opacity="1" />
  
  <!-- Smelter ventilation slits -->
  <path d="M6,9.5 L7,9.5 M8,9.5 L10,9.5" stroke="#07c8f9" stroke-width="0.3" opacity="0.5" />
  
  <!-- Heat emission lines -->
  <path d="M7,5.5 L7,4.5 M8,5.5 L8,4.5 M9,5.5 L9,4.5" stroke="#07c8f9" stroke-width="0.2" opacity="0.5" stroke-dasharray="0.3,0.3" />
</svg>