<?xml version="1.0" encoding="UTF-8" standalone="no"?>
<svg xmlns="http://www.w3.org/2000/svg" width="16" height="16" viewBox="0 0 16 16">
  <!-- Space Helmet Texture -->
  <rect x="0" y="0" width="16" height="16" fill="#000000" opacity="0" />
  
  <!-- Helmet base shape (white/metallic) -->
  <path d="M 4,4 A 6,6 0 1,0 12,4 L 12,10 A 4,4 0 1,1 4,10 Z" fill="#f0f0f0" />
  
  <!-- Glass visor (blue tint) -->
  <path d="M 5,5 L 5,9 A 3,3 0 1,0 11,9 L 11,5 Z" fill="#7fafff" fill-opacity="0.7" />
  
  <!-- Helmet details (gray) -->
  <path d="M 4,4 L 4,10 A 4,4 0 0,0 6,13.5 A 4,4 0 0,0 10,13.5 A 4,4 0 0,0 12,10 L 12,4 A 6,6 0 0,1 8,6 A 6,6 0 0,1 4,4 Z" fill="#dddddd" fill-opacity="0.3" />
  
  <!-- Edge details -->
  <path d="M 4,4 A 6,6 0 0,1 12,4" stroke="#bbbbbb" stroke-width="0.5" fill="none" />
  <path d="M 4,10 A 4,4 0 0,0 12,10" stroke="#bbbbbb" stroke-width="0.5" fill="none" />
  
  <!-- Air system connectors -->
  <rect x="5" y="11" width="1" height="1.5" fill="#aaaaaa" />
  <rect x="10" y="11" width="1" height="1.5" fill="#aaaaaa" />
</svg>